<svg width="40" height="40" viewBox="0 0 40 40" fill="none" xmlns="http://www.w3.org/2000/svg" className="md:w-10 md:h-10 w-8 h-8 aspect-square"><path d="M16.5001 26.54C16.437 26.5402 16.3746 26.5278 16.3162 26.5038C16.2579 26.4798 16.2048 26.4446 16.1602 26.4C16.0728 26.3104 16.0239 26.1901 16.0239 26.0649C16.0239 25.9398 16.0728 25.8196 16.1602 25.73L23.7202 18.17C23.7647 18.1253 23.8178 18.0898 23.8761 18.0656C23.9344 18.0413 23.9969 18.0288 24.0601 18.0288C24.1233 18.0288 24.1859 18.0413 24.2442 18.0656C24.3025 18.0898 24.3556 18.1253 24.4001 18.17C24.4875 18.2597 24.5364 18.3798 24.5364 18.505C24.5364 18.6302 24.4875 18.7503 24.4001 18.84L16.8401 26.4C16.7955 26.4446 16.7424 26.4798 16.6841 26.5038C16.6257 26.5278 16.5632 26.5402 16.5001 26.54Z" fill="url(#paint0_linear_205_2113)"></path><path d="M16.5 26.29C16.4409 26.2913 16.3837 26.2697 16.34 26.2299C16.3182 26.2094 16.3009 26.1846 16.289 26.1571C16.2771 26.1295 16.271 26.0999 16.271 26.0699C16.271 26.0399 16.2771 26.0104 16.289 25.9829C16.3009 25.9554 16.3182 25.9306 16.34 25.91L23.9 18.3499C23.9443 18.3193 23.9979 18.3052 24.0516 18.31C24.1052 18.3149 24.1554 18.3383 24.1935 18.3764C24.2316 18.4145 24.2551 18.4648 24.2599 18.5184C24.2648 18.572 24.2507 18.6257 24.22 18.67L16.66 26.2299C16.6154 26.2681 16.5587 26.2894 16.5 26.29Z" fill="url(#paint1_linear_205_2113)"></path><path d="M17.0902 20.87C16.6211 20.87 16.1624 20.7307 15.7725 20.4699C15.3825 20.209 15.0787 19.8383 14.8997 19.4047C14.7206 18.971 14.6742 18.494 14.7665 18.034C14.8587 17.574 15.0855 17.1516 15.4179 16.8206C15.7504 16.4895 16.1737 16.2647 16.634 16.1743C17.0944 16.084 17.5713 16.1323 18.0042 16.3133C18.437 16.4942 18.8065 16.7995 19.0657 17.1906C19.3249 17.5816 19.4622 18.0409 19.4602 18.51C19.4576 19.1369 19.2067 19.737 18.7625 20.1793C18.3183 20.6216 17.7171 20.87 17.0902 20.87ZM17.0902 17.09C16.809 17.088 16.5334 17.1697 16.2986 17.3245C16.0638 17.4793 15.8802 17.7003 15.7712 17.9596C15.6622 18.2189 15.6326 18.5048 15.6863 18.7809C15.7399 19.057 15.8744 19.3109 16.0726 19.5105C16.2708 19.7101 16.5238 19.8464 16.7995 19.902C17.0752 19.9576 17.3612 19.9301 17.6213 19.8229C17.8813 19.7157 18.1037 19.5337 18.2602 19.3C18.4167 19.0662 18.5002 18.7913 18.5002 18.51C18.4976 18.136 18.3486 17.7777 18.085 17.5122C17.8214 17.2468 17.4643 17.0952 17.0902 17.09Z" fill="url(#paint2_linear_205_2113)"></path><path d="M17.0902 20.61C16.67 20.6119 16.2588 20.489 15.9086 20.2568C15.5584 20.0246 15.2852 19.6937 15.1235 19.3059C14.9618 18.9181 14.919 18.491 15.0005 18.0788C15.0819 17.6667 15.2841 17.288 15.5811 16.9909C15.8782 16.6938 16.2569 16.4917 16.669 16.4102C17.0812 16.3288 17.5083 16.3716 17.8961 16.5333C18.2839 16.695 18.6149 16.9683 18.8471 17.3184C19.0793 17.6686 19.2021 18.0798 19.2002 18.5C19.1975 19.0588 18.9744 19.594 18.5793 19.9891C18.1841 20.3842 17.649 20.6073 17.0902 20.61ZM17.0902 16.8299C16.7595 16.8279 16.4356 16.9242 16.1597 17.1065C15.8838 17.2888 15.6681 17.549 15.5402 17.854C15.4123 18.1589 15.3778 18.4949 15.4411 18.8195C15.5044 19.1442 15.6626 19.4427 15.8958 19.6772C16.1289 19.9118 16.4265 20.0718 16.7507 20.1371C17.0749 20.2023 17.4112 20.1699 17.7169 20.0438C18.0227 19.9177 18.2841 19.7036 18.468 19.4288C18.652 19.154 18.7501 18.8307 18.7501 18.5C18.7501 18.282 18.7072 18.0661 18.6238 17.8647C18.5404 17.6633 18.4181 17.4803 18.2639 17.3261C18.1098 17.172 17.9268 17.0497 17.7254 16.9663C17.524 16.8829 17.3082 16.8399 17.0902 16.8399V16.8299Z" fill="url(#paint3_linear_205_2113)"></path><path d="M23.4301 28.4299C22.9609 28.4299 22.5023 28.2908 22.1123 28.0299C21.7224 27.769 21.4186 27.3982 21.2395 26.9646C21.0604 26.531 21.0141 26.0539 21.1063 25.5939C21.1986 25.1339 21.4253 24.7117 21.7578 24.3806C22.0902 24.0496 22.5134 23.8246 22.9738 23.7342C23.4342 23.6439 23.9111 23.6924 24.3439 23.8733C24.7768 24.0542 25.1463 24.3595 25.4055 24.7506C25.6647 25.1417 25.802 25.6008 25.8001 26.0699C25.7974 26.6968 25.5465 27.2971 25.1024 27.7394C24.6582 28.1817 24.0569 28.4299 23.4301 28.4299ZM23.4301 24.65C23.1488 24.648 22.8733 24.7296 22.6384 24.8844C22.4036 25.0392 22.22 25.2604 22.111 25.5196C22.002 25.7789 21.9725 26.0647 22.0261 26.3408C22.0798 26.6169 22.2142 26.8708 22.4124 27.0704C22.6106 27.27 22.8636 27.4063 23.1393 27.4619C23.415 27.5175 23.7011 27.49 23.9611 27.3828C24.2212 27.2756 24.4435 27.0937 24.6 26.86C24.7565 26.6263 24.84 26.3512 24.84 26.0699C24.844 25.8813 24.8106 25.6939 24.7418 25.5182C24.6729 25.3425 24.57 25.1822 24.439 25.0465C24.3079 24.9108 24.1513 24.8023 23.9781 24.7274C23.8049 24.6525 23.6187 24.6126 23.4301 24.61V24.65Z" fill="url(#paint4_linear_205_2113)"></path><path d="M23.4301 28.1799C23.0099 28.1819 22.5987 28.0591 22.2485 27.8269C21.8983 27.5947 21.625 27.2636 21.4633 26.8758C21.3016 26.488 21.2588 26.0609 21.3403 25.6488C21.4218 25.2366 21.6239 24.858 21.921 24.5609C22.2181 24.2638 22.5968 24.0617 23.0089 23.9802C23.4211 23.8987 23.8482 23.9415 24.236 24.1032C24.6238 24.2649 24.9547 24.5382 25.1869 24.8884C25.4191 25.2386 25.542 25.6498 25.5401 26.0699C25.5374 26.6287 25.3143 27.1639 24.9192 27.559C24.524 27.9542 23.9889 28.1773 23.4301 28.1799ZM23.4301 24.4C23.0994 24.398 22.7755 24.4942 22.4995 24.6765C22.2236 24.8588 22.008 25.1189 21.8801 25.4239C21.7522 25.7289 21.7176 26.065 21.7809 26.3896C21.8442 26.7142 22.0025 27.0127 22.2356 27.2473C22.4688 27.4818 22.7663 27.6419 23.0905 27.7071C23.4148 27.7724 23.7511 27.7398 24.0568 27.6137C24.3625 27.4876 24.6239 27.2736 24.8079 26.9987C24.9918 26.7239 25.09 26.4006 25.0901 26.0699C25.0901 25.6287 24.9155 25.2054 24.6045 24.8925C24.2934 24.5796 23.8713 24.4026 23.4301 24.4Z" fill="url(#paint5_linear_205_2113)"></path><path d="M22.9302 33.76C22.8424 33.7569 22.7567 33.7329 22.6802 33.6899C22.6265 33.6569 22.5801 33.6133 22.544 33.5617C22.5079 33.5101 22.4827 33.4517 22.4701 33.39L22.0201 31.4799C21.6001 31.4799 21.2001 31.5499 20.8201 31.5499C20.4401 31.5499 18.4501 31.5499 17.5001 31.4599L17.0502 33.37C17.0376 33.4317 17.0124 33.4901 16.9763 33.5417C16.9402 33.5933 16.8938 33.637 16.8401 33.67C16.7641 33.7141 16.678 33.7381 16.5901 33.74H16.4801L11.0701 32.4599C10.9472 32.4304 10.84 32.3554 10.7701 32.25C10.7361 32.1972 10.7132 32.138 10.7029 32.0761C10.6926 32.0142 10.695 31.9509 10.7101 31.89L11.3702 29.03C10.0467 28.0932 9.03611 26.7794 8.47014 25.26H5.47014C5.40842 25.26 5.34729 25.2478 5.29027 25.2242C5.23324 25.2006 5.18144 25.1659 5.1378 25.1223C5.09416 25.0786 5.05955 25.0268 5.03593 24.9698C5.01231 24.9128 5.00011 24.8517 5.00011 24.79V19.12C4.99877 19.0574 5.00998 18.9952 5.033 18.937C5.05603 18.8788 5.09042 18.8258 5.1342 18.7811C5.17798 18.7364 5.23026 18.7008 5.28795 18.6766C5.34563 18.6524 5.40757 18.64 5.47014 18.64H8.47014C9.1499 17.2969 10.0997 16.1088 11.2601 15.15C11.2609 14.4402 11.0769 13.7423 10.7262 13.1251C10.3756 12.5079 9.87028 11.9927 9.26012 11.63C9.17813 11.581 9.11431 11.5068 9.07823 11.4184C9.04215 11.33 9.03577 11.2323 9.0601 11.14C9.07883 11.0472 9.12518 10.9622 9.19298 10.8962C9.26078 10.8302 9.34688 10.7862 9.44011 10.77C9.93194 10.6836 10.4308 10.6434 10.9302 10.65C12.3202 10.65 14.8302 10.96 16.1802 13.01C17.367 12.8159 18.5676 12.7189 19.7701 12.7199C20.2101 12.7199 20.5701 12.7199 20.7701 12.7199C23.5423 12.8677 26.2007 13.8703 28.3801 15.5899C29.3778 16.3671 30.1885 17.358 30.7527 18.4898C31.3168 19.6216 31.6201 20.8655 31.6401 22.13C31.6141 23.4814 31.2798 24.809 30.6629 26.0117C30.0459 27.2144 29.1626 28.2604 28.0801 29.0699L28.7301 31.9C28.7571 32.0232 28.7344 32.1521 28.667 32.2588C28.5997 32.3654 28.493 32.4413 28.3702 32.4699L22.9601 33.7199L22.9302 33.76ZM22.3901 30.4799C22.4988 30.4793 22.6044 30.5155 22.6898 30.5827C22.7752 30.6499 22.8353 30.7442 22.8602 30.8499L23.2901 32.7099L27.7701 31.7099L27.1601 29.0499C27.1397 28.9596 27.1458 28.8652 27.1777 28.7783C27.2097 28.6913 27.2661 28.6155 27.3401 28.5599C28.3702 27.8412 29.2166 26.8899 29.8108 25.7833C30.4049 24.6766 30.7302 23.4456 30.7601 22.1899C30.7601 17.7599 26.4701 14.1299 20.7601 13.7299H19.7601C18.5093 13.7245 17.2606 13.8349 16.0301 14.0599C15.9367 14.0695 15.8424 14.0531 15.7577 14.0125C15.673 13.972 15.6012 13.9087 15.5502 13.8299C14.5502 12.0399 12.4701 11.66 10.9001 11.66H10.7601C11.2665 12.1481 11.6597 12.7414 11.912 13.3979C12.1642 14.0545 12.2694 14.7583 12.2201 15.4599C12.2186 15.5281 12.2016 15.5951 12.1705 15.6557C12.1393 15.7164 12.0947 15.769 12.0401 15.8099C10.8384 16.7569 9.87593 17.9729 9.23015 19.3599C9.19061 19.4433 9.1283 19.5138 9.05046 19.5633C8.97262 19.6129 8.88241 19.6395 8.79015 19.64H5.94011V24.3599H8.80015C8.90096 24.358 8.99961 24.3893 9.08092 24.4489C9.16222 24.5086 9.22163 24.5932 9.25011 24.6899C9.76113 26.2554 10.7913 27.5996 12.1702 28.5C12.2463 28.5538 12.3042 28.6294 12.3363 28.7169C12.3685 28.8044 12.3733 28.8997 12.3501 28.99L11.7402 31.6899L16.2301 32.75L16.6501 30.9C16.6753 30.7952 16.7358 30.7022 16.8213 30.6367C16.9069 30.5711 17.0124 30.537 17.1202 30.54C17.6502 30.6 20.2801 30.65 20.8101 30.65C21.315 30.6486 21.8194 30.6151 22.3201 30.5499L22.3901 30.4799Z" fill="url(#paint6_linear_205_2113)"></path><path d="M22.93 33.51C22.891 33.523 22.8489 33.523 22.8099 33.51C22.7843 33.4951 22.7622 33.4748 22.745 33.4507C22.7277 33.4266 22.7158 33.3991 22.7099 33.37L22.22 31.25C21.7555 31.308 21.288 31.338 20.8199 31.34C20.3799 31.34 18.13 31.34 17.3 31.24L16.8099 33.35C16.8041 33.3791 16.7922 33.4066 16.7749 33.4307C16.7577 33.4548 16.7356 33.4751 16.7099 33.49C16.6841 33.5049 16.6548 33.5128 16.6249 33.5128C16.5951 33.5128 16.5658 33.5049 16.54 33.49L11.0899 32.21C11.0314 32.1935 10.9813 32.1555 10.9498 32.1035C10.9182 32.0516 10.9076 31.9895 10.92 31.93L11.61 28.93C10.2176 27.9809 9.1662 26.6106 8.60997 25.02H5.43992C5.38158 25.02 5.32566 24.9968 5.28441 24.9556C5.24315 24.9143 5.21995 24.8583 5.21995 24.8V19.13C5.2186 19.1003 5.2233 19.0706 5.23375 19.0427C5.2442 19.0149 5.26018 18.9894 5.28074 18.9679C5.30131 18.9464 5.32601 18.9293 5.35338 18.9176C5.38074 18.906 5.41017 18.9 5.43992 18.9H8.62993C9.30917 17.4945 10.293 16.2579 11.5099 15.2801C11.5344 14.5083 11.3515 13.7441 10.9805 13.067C10.6094 12.3899 10.0636 11.8246 9.39995 11.43C9.36075 11.4075 9.32989 11.373 9.31187 11.3316C9.29386 11.2901 9.28968 11.244 9.29997 11.2C9.31007 11.1561 9.33229 11.116 9.36412 11.0841C9.39595 11.0523 9.4361 11.0301 9.47996 11.02C9.66996 11.02 14.1799 10.21 16.0599 13.3C17.6248 13.0321 19.2141 12.9349 20.8 13.01C23.5214 13.1563 26.1308 14.1414 28.2699 15.83C29.2389 16.5823 30.0268 17.5425 30.5754 18.6398C31.1241 19.737 31.4194 20.9435 31.4399 22.1701C31.4117 23.5103 31.0728 24.8255 30.4499 26.0125C29.8269 27.1994 28.9369 28.2255 27.85 29.01L28.53 32.01C28.5374 32.0383 28.5392 32.0676 28.5352 32.0966C28.5312 32.1255 28.5215 32.1535 28.5066 32.1786C28.4917 32.2037 28.4719 32.2256 28.4485 32.2431C28.425 32.2605 28.3983 32.2731 28.37 32.2801L22.9499 33.5401L22.93 33.51ZM22.3899 30.73C22.442 30.7291 22.4927 30.7467 22.5329 30.7797C22.5732 30.8126 22.6005 30.8589 22.61 30.9101L23.1 33.01L28.1 31.85L27.43 28.95C27.4188 28.907 27.4214 28.8617 27.4375 28.8203C27.4537 28.779 27.4826 28.7439 27.5199 28.72C28.5822 27.9791 29.4547 26.998 30.0663 25.8563C30.678 24.7147 31.0116 23.4449 31.04 22.15C31.04 17.59 26.6499 13.85 20.8299 13.45C19.2299 13.3631 17.6253 13.4672 16.05 13.76C16.0037 13.7659 15.9566 13.7587 15.9142 13.7393C15.8718 13.7198 15.8357 13.689 15.8099 13.65C14.4899 11.3 11.44 11.28 10.18 11.38C10.7948 11.8409 11.2844 12.4484 11.604 13.1471C11.9237 13.8458 12.0632 14.6135 12.0099 15.38C12.0107 15.4126 12.0039 15.445 11.99 15.4745C11.9761 15.504 11.9556 15.5298 11.93 15.55C10.6963 16.5257 9.70686 17.7754 9.03996 19.2C9.02094 19.2394 8.9911 19.2725 8.9539 19.2956C8.91671 19.3186 8.87368 19.3305 8.82994 19.33H5.72996V24.55H8.83995C8.88755 24.5503 8.93374 24.5661 8.9716 24.595C9.00947 24.6238 9.03699 24.6642 9.04997 24.71C9.57702 26.3214 10.6345 27.7068 12.05 28.64C12.0853 28.6658 12.1125 28.7011 12.1285 28.7418C12.1444 28.7826 12.1484 28.8271 12.1399 28.87L11.47 31.87L16.47 33.0401L16.9599 30.95C16.972 30.8951 17.0046 30.8468 17.0511 30.8152C17.0976 30.7836 17.1544 30.7711 17.2099 30.7801C17.6999 30.8401 20.32 30.89 20.87 30.89C21.3853 30.8904 21.8999 30.8537 22.41 30.7801L22.3899 30.73Z" fill="url(#paint7_linear_205_2113)"></path><path d="M11.7102 19C11.5629 19.0024 11.4167 18.9752 11.2802 18.92C11.1654 18.8676 11.0759 18.7721 11.031 18.6542C10.986 18.5363 10.9894 18.4055 11.0402 18.29C11.0759 18.2059 11.1359 18.1343 11.2125 18.0845C11.2891 18.0346 11.3788 18.0087 11.4702 18.01C11.5365 18.0006 11.6038 18.0006 11.6702 18.01C11.7766 18.0194 11.8837 18.0194 11.9902 18.01C12.1114 17.9946 12.2339 18.025 12.3338 18.0953C12.4336 18.1656 12.5037 18.2708 12.5302 18.39C12.5498 18.5126 12.5211 18.6381 12.4501 18.74C12.4171 18.7926 12.3733 18.8376 12.3216 18.8721C12.2699 18.9065 12.2115 18.9297 12.1502 18.9399C12.0062 18.9762 11.8586 18.9964 11.7102 19Z" fill="url(#paint8_linear_205_2113)"></path><path d="M11.7202 18.75C11.6039 18.7541 11.488 18.7336 11.3802 18.69C11.3247 18.6658 11.2811 18.6207 11.2587 18.5646C11.2362 18.5084 11.2367 18.4458 11.2602 18.39C11.2862 18.3364 11.332 18.2949 11.388 18.2744C11.4439 18.2539 11.5057 18.2559 11.5602 18.28C11.7171 18.3245 11.8833 18.3245 12.0402 18.28C12.0983 18.2711 12.1577 18.2848 12.206 18.3183C12.2544 18.3517 12.2881 18.4024 12.3002 18.46C12.3095 18.5193 12.2961 18.58 12.2627 18.63C12.2294 18.68 12.1786 18.7157 12.1202 18.73C11.9878 18.7496 11.8539 18.7563 11.7202 18.75Z" fill="url(#paint9_linear_205_2113)"></path><path d="M31.24 22.68C31.15 22.6791 31.0619 22.6529 30.9861 22.6044C30.9102 22.5559 30.8496 22.4872 30.811 22.4058C30.7724 22.3245 30.7574 22.2339 30.7679 22.1445C30.7783 22.055 30.8137 21.9704 30.87 21.9001C30.9504 21.8038 31.0652 21.7427 31.1899 21.73C31.9357 21.5928 32.6088 21.1961 33.09 20.61H33.02C32.7286 20.4293 32.479 20.1888 32.2877 19.9044C32.0963 19.6199 31.9676 19.298 31.91 18.96C31.8865 18.7621 31.9034 18.5615 31.9598 18.3704C32.0163 18.1793 32.111 18.0017 32.2382 17.8483C32.3654 17.6949 32.5224 17.569 32.6998 17.4782C32.8771 17.3874 33.0711 17.3335 33.27 17.32C33.461 17.3119 33.6516 17.3427 33.8303 17.4106C34.009 17.4784 34.1721 17.5818 34.3096 17.7147C34.4471 17.8475 34.5562 18.0069 34.6302 18.1832C34.7042 18.3594 34.7415 18.5489 34.74 18.74C34.7759 19.3213 34.655 19.9016 34.39 20.4201L34.6999 20.6501C34.8006 20.7241 34.8684 20.8345 34.8889 20.9577C34.9095 21.0809 34.8811 21.2073 34.8099 21.31C34.7667 21.3731 34.7084 21.4246 34.6403 21.4595C34.5722 21.4945 34.4965 21.5118 34.42 21.5101C34.3225 21.5108 34.2275 21.4792 34.15 21.4201L33.86 21.22C33.2041 22.012 32.2776 22.5322 31.2599 22.68H31.24ZM33.36 18.2601C33.2854 18.2657 33.2128 18.2871 33.1471 18.3228C33.0814 18.3585 33.0239 18.4078 32.9786 18.4673C32.9332 18.5269 32.901 18.5953 32.884 18.6681C32.867 18.741 32.8656 18.8166 32.8799 18.8901C32.8799 19.2401 33.22 19.5301 33.61 19.8901C33.7506 19.5762 33.8157 19.2337 33.8 18.8901C33.8 18.4001 33.48 18.35 33.36 18.35V18.1V18.2601Z" fill="url(#paint10_linear_205_2113)"></path><path d="M31.2401 22.4299C31.1857 22.428 31.1337 22.407 31.0934 22.3704C31.0532 22.3338 31.0271 22.284 31.0201 22.23C31.0143 22.2009 31.0148 22.1709 31.0215 22.142C31.0282 22.1131 31.0409 22.0859 31.0589 22.0623C31.0768 22.0387 31.0996 22.0192 31.1257 22.005C31.1517 21.9908 31.1805 21.9823 31.2101 21.98C32.1147 21.8327 32.9258 21.3374 33.4701 20.6L33.1901 20.4C32.9296 20.2436 32.7057 20.0333 32.5332 19.7832C32.3607 19.5331 32.2437 19.249 32.1901 18.95C32.1693 18.7844 32.1824 18.6164 32.2286 18.4561C32.2748 18.2957 32.3531 18.1466 32.4589 18.0175C32.5646 17.8884 32.6954 17.7821 32.8434 17.7052C32.9915 17.6283 33.1537 17.5822 33.3201 17.57C33.4795 17.5615 33.6389 17.5864 33.7882 17.643C33.9375 17.6995 34.0734 17.7865 34.1872 17.8985C34.301 18.0104 34.3903 18.1448 34.4493 18.2931C34.5084 18.4414 34.5359 18.6005 34.5301 18.76C34.5674 19.3703 34.4174 19.9774 34.1001 20.5L34.6001 20.85C34.6431 20.8879 34.6703 20.9406 34.6766 20.9976C34.6828 21.0546 34.6675 21.1118 34.6337 21.1581C34.5999 21.2044 34.5501 21.2364 34.4939 21.2478C34.4377 21.2593 34.3793 21.2494 34.3301 21.22L33.8501 20.88C33.2289 21.7144 32.307 22.2739 31.2801 22.44L31.2401 22.4299ZM33.4601 20.03L33.7201 20.22C33.979 19.7862 34.101 19.2843 34.0701 18.78C34.0701 18.18 33.6501 17.99 33.3401 18.01C33.2327 18.0184 33.1283 18.0488 33.0333 18.0995C32.9382 18.1502 32.8547 18.22 32.788 18.3046C32.7213 18.3891 32.6729 18.4865 32.6457 18.5907C32.6185 18.6949 32.6132 18.8037 32.6301 18.9101C32.6601 19.3601 33.0201 19.68 33.4601 20.03Z" fill="url(#paint11_linear_205_2113)"></path><path d="M25.0302 12.61C24.961 12.6249 24.8894 12.6249 24.8202 12.61C24.7064 12.554 24.6195 12.4553 24.5783 12.3353C24.537 12.2154 24.5449 12.0841 24.6002 11.97C24.84 11.4913 24.9363 10.9535 24.8778 10.4213C24.8192 9.8891 24.6083 9.38516 24.2702 8.96999C24.0414 8.68897 23.7592 8.45594 23.44 8.28432C23.1208 8.1127 22.7709 8.00589 22.4102 7.96999H22.0902C21.4588 7.96801 20.8467 8.18738 20.3602 8.58998C19.949 8.92413 19.6425 9.36958 19.4776 9.87319C19.3127 10.3768 19.2963 10.9172 19.4303 11.4299C19.4578 11.5531 19.4368 11.6821 19.3716 11.7902C19.3064 11.8982 19.202 11.977 19.0802 12.01H18.9602C18.8542 12.0107 18.751 11.9755 18.6675 11.9102C18.584 11.8448 18.525 11.7531 18.5002 11.65C18.324 10.961 18.3491 10.2358 18.5724 9.56056C18.7957 8.8853 19.2079 8.28815 19.7602 7.83998C20.414 7.29473 21.239 6.99735 22.0902 7.00002H22.4802C23.0781 7.06442 23.6515 7.27238 24.1516 7.60622C24.6517 7.94006 25.0637 8.38983 25.3524 8.91725C25.6412 9.44468 25.7982 10.0342 25.81 10.6354C25.8218 11.2366 25.6881 11.8317 25.4202 12.37C25.3804 12.4393 25.3238 12.4977 25.2557 12.5396C25.1876 12.5815 25.1101 12.6057 25.0302 12.61Z" fill="url(#paint12_linear_205_2113)"></path><path d="M25.0301 12.38C24.9975 12.3901 24.9627 12.3901 24.9301 12.38C24.9027 12.3682 24.8779 12.3509 24.8573 12.3291C24.8368 12.3074 24.8209 12.2818 24.8106 12.2537C24.8003 12.2256 24.7958 12.1958 24.7974 12.1659C24.7991 12.1361 24.8068 12.1068 24.8201 12.08C25.0445 11.6443 25.1588 11.1603 25.1529 10.6702C25.147 10.1801 25.0212 9.69901 24.7863 9.26884C24.5515 8.83866 24.2149 8.47255 23.8059 8.20255C23.3969 7.93255 22.9279 7.76689 22.4401 7.72001C22.0464 7.67877 21.6484 7.71586 21.2691 7.82914C20.8898 7.94241 20.5367 8.12967 20.2301 8.38004C19.7826 8.74557 19.4501 9.23258 19.2727 9.78251C19.0953 10.3324 19.0806 10.9219 19.2301 11.48C19.2455 11.5383 19.2373 11.6004 19.2074 11.6527C19.1775 11.7051 19.1282 11.7437 19.0701 11.76C19.0405 11.7675 19.0098 11.769 18.9797 11.7644C18.9496 11.7599 18.9206 11.7494 18.8946 11.7336C18.8685 11.7177 18.8458 11.6969 18.8279 11.6723C18.81 11.6476 18.7972 11.6197 18.7901 11.59C18.6523 11.0478 18.6472 10.4805 18.7753 9.93595C18.9034 9.39141 19.1608 8.88572 19.5258 8.46183C19.8908 8.03794 20.3527 7.70836 20.8722 7.50089C21.3917 7.29342 21.9535 7.21423 22.5101 7.27006C23.0662 7.3312 23.5994 7.52555 24.0645 7.83658C24.5295 8.14762 24.9127 8.56616 25.1816 9.0568C25.4505 9.54744 25.5971 10.0957 25.609 10.6551C25.621 11.2144 25.4978 11.7684 25.2501 12.2701C25.2276 12.3073 25.195 12.3374 25.156 12.3568C25.1171 12.3763 25.0734 12.3844 25.0301 12.38Z" fill="url(#paint13_linear_205_2113)"></path><defs><linearGradient id="paint0_linear_205_2113" x1="2.87019" y1="22.29" x2="34.9601" y2="22.29" gradientUnits="userSpaceOnUse"><stop stop-color="#0E4E95"></stop><stop offset="0.8" stop-color="#00B054"></stop></linearGradient><linearGradient id="paint1_linear_205_2113" x1="3.88994" y1="22.29" x2="34.1001" y2="22.29" gradientUnits="userSpaceOnUse"><stop stop-color="#0E4E95"></stop><stop offset="0.8" stop-color="#00B054"></stop></linearGradient><linearGradient id="paint2_linear_205_2113" x1="2.33014" y1="18.51" x2="36.1003" y2="18.51" gradientUnits="userSpaceOnUse"><stop stop-color="#0E4E95"></stop><stop offset="0.8" stop-color="#00B054"></stop></linearGradient><linearGradient id="paint3_linear_205_2113" x1="3.89024" y1="18.51" x2="34.1001" y2="18.51" gradientUnits="userSpaceOnUse"><stop stop-color="#0E4E95"></stop><stop offset="0.8" stop-color="#00B054"></stop></linearGradient><linearGradient id="paint4_linear_205_2113" x1="1.57996" y1="26.0699" x2="35.3601" y2="26.0699" gradientUnits="userSpaceOnUse"><stop stop-color="#0E4E95"></stop><stop offset="0.8" stop-color="#00B054"></stop></linearGradient><linearGradient id="paint5_linear_205_2113" x1="3.88986" y1="26.0699" x2="34.1001" y2="26.0699" gradientUnits="userSpaceOnUse"><stop stop-color="#0E4E95"></stop><stop offset="0.8" stop-color="#00B054"></stop></linearGradient><linearGradient id="paint6_linear_205_2113" x1="3.62011" y1="22.2" x2="34.4001" y2="22.2" gradientUnits="userSpaceOnUse"><stop stop-color="#0E4E95"></stop><stop offset="0.8" stop-color="#00B054"></stop></linearGradient><linearGradient id="paint7_linear_205_2113" x1="3.88996" y1="22.2" x2="34.0999" y2="22.2" gradientUnits="userSpaceOnUse"><stop stop-color="#0E4E95"></stop><stop offset="0.8" stop-color="#00B054"></stop></linearGradient><linearGradient id="paint8_linear_205_2113" x1="0.170263" y1="18.5" x2="44.6299" y2="18.5" gradientUnits="userSpaceOnUse"><stop stop-color="#0E4E95"></stop><stop offset="0.8" stop-color="#00B054"></stop></linearGradient><linearGradient id="paint9_linear_205_2113" x1="3.89003" y1="18.5" x2="34.1007" y2="18.5" gradientUnits="userSpaceOnUse"><stop stop-color="#0E4E95"></stop><stop offset="0.8" stop-color="#00B054"></stop></linearGradient><linearGradient id="paint10_linear_205_2113" x1="-0.0499825" y1="19.99" x2="34.27" y2="19.99" gradientUnits="userSpaceOnUse"><stop stop-color="#0E4E95"></stop><stop offset="0.8" stop-color="#00B054"></stop></linearGradient><linearGradient id="paint11_linear_205_2113" x1="3.89019" y1="19.99" x2="34.1001" y2="19.99" gradientUnits="userSpaceOnUse"><stop stop-color="#0E4E95"></stop><stop offset="0.8" stop-color="#00B054"></stop></linearGradient><linearGradient id="paint12_linear_205_2113" x1="2.58021" y1="9.80001" x2="34.9602" y2="9.80001" gradientUnits="userSpaceOnUse"><stop stop-color="#0E4E95"></stop><stop offset="0.8" stop-color="#00B054"></stop></linearGradient><linearGradient id="paint13_linear_205_2113" x1="3.89017" y1="9.80005" x2="34.1001" y2="9.80005" gradientUnits="userSpaceOnUse"><stop stop-color="#0E4E95"></stop><stop offset="0.8" stop-color="#00B054"></stop></linearGradient></defs></svg>