<svg width="40" height="40" viewBox="0 0 40 40" fill="none" xmlns="http://www.w3.org/2000/svg" className="md:w-10 md:h-10 w-8 h-8 aspect-square"><path d="M14.3598 32.7001C14.2933 32.7001 14.2275 32.6869 14.1661 32.6611C14.1048 32.6354 14.0492 32.5977 14.0027 32.5502C13.9561 32.5027 13.9195 32.4463 13.895 32.3845C13.8704 32.3227 13.8585 32.2566 13.8598 32.1901V31.4202H11.0498V32.1901C11.0266 32.3056 10.9641 32.4095 10.873 32.4841C10.7818 32.5588 10.6676 32.5996 10.5498 32.5996C10.432 32.5996 10.3178 32.5588 10.2267 32.4841C10.1355 32.4095 10.073 32.3056 10.0498 32.1901V30.9202C10.0498 30.7849 10.1036 30.6551 10.1992 30.5594C10.2949 30.4638 10.4246 30.4102 10.5598 30.4102H14.3798C14.5151 30.4102 14.6448 30.4638 14.7404 30.5594C14.8361 30.6551 14.8898 30.7849 14.8898 30.9202V32.1901C14.8899 32.2588 14.8761 32.3268 14.8492 32.39C14.8223 32.4532 14.783 32.5104 14.7335 32.558C14.684 32.6056 14.6254 32.6428 14.5612 32.6672C14.497 32.6917 14.4284 32.7028 14.3598 32.7001Z" fill="url(#paint0_linear_218_3014)"></path><path d="M14.3597 32.4501C14.3261 32.4501 14.2927 32.4434 14.2617 32.4302C14.2307 32.417 14.2027 32.3977 14.1793 32.3734C14.156 32.3491 14.1378 32.3203 14.1259 32.2888C14.1139 32.2573 14.1084 32.2237 14.1097 32.1901V31.1901H10.7997V32.1901C10.7997 32.259 10.7724 32.3253 10.7236 32.374C10.6749 32.4228 10.6087 32.4501 10.5397 32.4501C10.4708 32.4501 10.4047 32.4228 10.3559 32.374C10.3071 32.3253 10.2798 32.259 10.2798 32.1901V30.9202C10.2798 30.8512 10.3071 30.7851 10.3559 30.7363C10.4047 30.6876 10.4708 30.6602 10.5397 30.6602H14.3597C14.4287 30.6602 14.4948 30.6876 14.5436 30.7363C14.5923 30.7851 14.6198 30.8512 14.6198 30.9202V32.1901C14.6212 32.2246 14.6154 32.2591 14.6028 32.2913C14.5903 32.3234 14.5712 32.3526 14.5468 32.3771C14.5223 32.4015 14.4931 32.4207 14.4609 32.4332C14.4287 32.4458 14.3943 32.4515 14.3597 32.4501Z" fill="url(#paint1_linear_218_3014)"></path><path d="M18.19 32.7002C18.0547 32.7002 17.925 32.6465 17.8293 32.5509C17.7337 32.4553 17.68 32.3254 17.68 32.1902V29.5103H14.87V32.1902C14.87 32.3254 14.8163 32.4553 14.7206 32.5509C14.625 32.6465 14.4952 32.7002 14.36 32.7002C14.2935 32.7002 14.2276 32.687 14.1663 32.6613C14.105 32.6355 14.0494 32.5978 14.0028 32.5503C13.9563 32.5028 13.9197 32.4465 13.8951 32.3846C13.8706 32.3228 13.8586 32.2567 13.86 32.1902V29.0002C13.8586 28.9337 13.8706 28.8676 13.8951 28.8058C13.9197 28.744 13.9563 28.6878 14.0028 28.6403C14.0494 28.5928 14.105 28.555 14.1663 28.5293C14.2276 28.5035 14.2935 28.4902 14.36 28.4902H18.19C18.3252 28.4902 18.4549 28.544 18.5506 28.6396C18.6462 28.7353 18.7 28.865 18.7 29.0002V32.1803C18.7013 32.2481 18.6891 32.3155 18.664 32.3785C18.639 32.4416 18.6017 32.4989 18.5542 32.5474C18.5067 32.5958 18.45 32.6343 18.3875 32.6605C18.325 32.6868 18.2578 32.7002 18.19 32.7002Z" fill="url(#paint2_linear_218_3014)"></path><path d="M18.19 32.4502C18.121 32.4502 18.0549 32.4229 18.0062 32.3741C17.9574 32.3254 17.93 32.2591 17.93 32.1902V29.2603H14.62V32.1902C14.6275 32.2279 14.6265 32.2669 14.6172 32.3042C14.6078 32.3415 14.5904 32.3762 14.566 32.4059C14.5416 32.4356 14.5109 32.4596 14.4762 32.4761C14.4414 32.4925 14.4034 32.501 14.365 32.501C14.3265 32.501 14.2886 32.4925 14.2538 32.4761C14.2191 32.4596 14.1884 32.4356 14.164 32.4059C14.1396 32.3762 14.1221 32.3415 14.1128 32.3042C14.1034 32.2669 14.1025 32.2279 14.11 32.1902V29.0002C14.1086 28.9666 14.1141 28.933 14.1261 28.9015C14.138 28.87 14.1562 28.8413 14.1796 28.817C14.2029 28.7927 14.2309 28.7733 14.2619 28.7601C14.293 28.7469 14.3263 28.7402 14.36 28.7402H18.19C18.2589 28.7402 18.3251 28.7676 18.3738 28.8164C18.4226 28.8652 18.45 28.9313 18.45 29.0002V32.1803C18.4513 32.2153 18.4456 32.2501 18.4332 32.2828C18.4207 32.3155 18.4018 32.3454 18.3775 32.3706C18.3532 32.3958 18.3241 32.4159 18.2919 32.4296C18.2596 32.4433 18.225 32.4502 18.19 32.4502Z" fill="url(#paint3_linear_218_3014)"></path><path d="M21.9997 32.7C21.9332 32.7 21.8674 32.6868 21.806 32.661C21.7447 32.6353 21.6891 32.5975 21.6426 32.55C21.596 32.5026 21.5594 32.4462 21.5349 32.3844C21.5103 32.3226 21.4984 32.2564 21.4997 32.1899V26.33H18.6997V32.1899C18.6765 32.3054 18.614 32.4094 18.5228 32.484C18.4317 32.5587 18.3175 32.5995 18.1997 32.5995C18.0819 32.5995 17.9677 32.5587 17.8765 32.484C17.7854 32.4094 17.7229 32.3054 17.6997 32.1899V25.8199C17.6997 25.6847 17.7534 25.555 17.8491 25.4594C17.9447 25.3637 18.0745 25.3101 18.2097 25.3101H21.9997C22.135 25.3101 22.2646 25.3637 22.3603 25.4594C22.4559 25.555 22.5097 25.6847 22.5097 25.8199V32.1899C22.5097 32.3252 22.4559 32.455 22.3603 32.5507C22.2646 32.6463 22.135 32.7 21.9997 32.7Z" fill="url(#paint4_linear_218_3014)"></path><path d="M21.9999 32.45C21.9662 32.45 21.9329 32.4432 21.9019 32.4301C21.8709 32.4169 21.8429 32.3976 21.8195 32.3733C21.7962 32.349 21.778 32.3202 21.766 32.2887C21.754 32.2572 21.7486 32.2236 21.7499 32.1899V26.08H18.4399V32.1899C18.4399 32.2589 18.4125 32.3251 18.3638 32.3739C18.315 32.4227 18.2489 32.45 18.1799 32.45C18.111 32.45 18.0449 32.4227 17.9961 32.3739C17.9473 32.3251 17.9199 32.2589 17.9199 32.1899V25.8199C17.9199 25.751 17.9473 25.6849 17.9961 25.6361C18.0449 25.5873 18.111 25.5601 18.1799 25.5601H21.9999C22.0689 25.5601 22.135 25.5873 22.1838 25.6361C22.2325 25.6849 22.2599 25.751 22.2599 25.8199V32.1899C22.2614 32.2245 22.2556 32.259 22.243 32.2911C22.2305 32.3233 22.2114 32.3525 22.187 32.377C22.1625 32.4014 22.1333 32.4205 22.1011 32.4331C22.0689 32.4457 22.0345 32.4514 21.9999 32.45Z" fill="url(#paint5_linear_218_3014)"></path><path d="M25.8399 32.7002C25.7046 32.7002 25.5749 32.6465 25.4792 32.5509C25.3836 32.4552 25.3299 32.3254 25.3299 32.1902V20.5902H22.5199V32.1902C22.5199 32.3254 22.4661 32.4552 22.3705 32.5509C22.2748 32.6465 22.1451 32.7002 22.0099 32.7002C21.9434 32.7002 21.8775 32.687 21.8162 32.6612C21.7549 32.6355 21.6993 32.5978 21.6527 32.5503C21.6062 32.5028 21.5696 32.4464 21.545 32.3846C21.5205 32.3228 21.5085 32.2567 21.5099 32.1902V20.0802C21.5099 19.9476 21.5625 19.8204 21.6563 19.7267C21.7501 19.6329 21.8773 19.5802 22.0099 19.5802H25.8399C25.9064 19.5788 25.9725 19.5908 26.0343 19.6153C26.0961 19.6399 26.1524 19.6766 26.1999 19.7231C26.2474 19.7697 26.2851 19.8253 26.3109 19.8866C26.3366 19.9479 26.3498 20.0137 26.3498 20.0802V32.1902C26.3498 32.3254 26.2961 32.4552 26.2005 32.5509C26.1048 32.6465 25.9751 32.7002 25.8399 32.7002Z" fill="url(#paint6_linear_218_3014)"></path><path d="M25.8399 32.4501C25.7709 32.4501 25.7048 32.4228 25.656 32.374C25.6072 32.3253 25.5799 32.259 25.5799 32.1901V20.3401H22.2699V32.1901C22.2774 32.2278 22.2764 32.2668 22.2671 32.3041C22.2577 32.3414 22.2403 32.376 22.2159 32.4058C22.1915 32.4355 22.1608 32.4595 22.126 32.476C22.0913 32.4924 22.0533 32.5009 22.0149 32.5009C21.9764 32.5009 21.9384 32.4924 21.9037 32.476C21.8689 32.4595 21.8383 32.4355 21.8139 32.4058C21.7895 32.376 21.772 32.3414 21.7627 32.3041C21.7533 32.2668 21.7524 32.2278 21.7599 32.1901V20.0801C21.7599 20.0138 21.7862 19.9502 21.8331 19.9033C21.88 19.8564 21.9436 19.8301 22.0099 19.8301H25.8399C25.9072 19.83 25.9718 19.8561 26.0203 19.9027C26.0687 19.9493 26.0973 20.0129 26.0998 20.0801V32.1901C26.0998 32.259 26.0725 32.3253 26.0237 32.374C25.975 32.4228 25.9088 32.4501 25.8399 32.4501Z" fill="url(#paint7_linear_218_3014)"></path><path d="M20.7401 13.5803C20.6245 13.5571 20.5206 13.4947 20.446 13.4035C20.3713 13.3124 20.3306 13.1981 20.3306 13.0803C20.3306 12.9625 20.3713 12.8483 20.446 12.7572C20.5206 12.666 20.6245 12.6035 20.7401 12.5803H25.8401C25.9141 12.5654 25.9905 12.5672 26.0637 12.5854C26.137 12.6037 26.2053 12.6379 26.2637 12.6858C26.3221 12.7336 26.3692 12.7938 26.4015 12.862C26.4338 12.9303 26.4506 13.0048 26.4506 13.0803C26.4506 13.1558 26.4338 13.2305 26.4015 13.2987C26.3692 13.3669 26.3221 13.4271 26.2637 13.475C26.2053 13.5228 26.137 13.5571 26.0637 13.5753C25.9905 13.5935 25.9141 13.5952 25.8401 13.5803H20.7401Z" fill="url(#paint8_linear_218_3014)"></path><path d="M25.84 13.33H20.74C20.671 13.33 20.6049 13.3027 20.5562 13.2539C20.5074 13.2051 20.48 13.1389 20.48 13.0699C20.48 13.001 20.5074 12.9349 20.5562 12.8861C20.6049 12.8373 20.671 12.8101 20.74 12.8101H25.84C25.909 12.8101 25.9751 12.8373 26.0239 12.8861C26.0726 12.9349 26.1 13.001 26.1 13.0699C26.1 13.1389 26.0726 13.2051 26.0239 13.2539C25.9751 13.3027 25.909 13.33 25.84 13.33Z" fill="url(#paint9_linear_218_3014)"></path><path d="M20.74 16.76C20.6735 16.7613 20.6074 16.7494 20.5456 16.7249C20.4838 16.7003 20.4274 16.6637 20.3799 16.6172C20.3325 16.5706 20.2947 16.5151 20.269 16.4537C20.2432 16.3924 20.23 16.3265 20.23 16.26C20.23 16.1247 20.2838 15.9951 20.3794 15.8994C20.475 15.8038 20.6047 15.75 20.74 15.75H25.84C25.9753 15.75 26.105 15.8038 26.2006 15.8994C26.2963 15.9951 26.35 16.1247 26.35 16.26C26.35 16.3265 26.3368 16.3924 26.311 16.4537C26.2853 16.5151 26.2475 16.5706 26.2 16.6172C26.1525 16.6637 26.0962 16.7003 26.0344 16.7249C25.9726 16.7494 25.9065 16.7613 25.84 16.76H20.74Z" fill="url(#paint10_linear_218_3014)"></path><path d="M25.84 16.51H20.74C20.6727 16.5101 20.6081 16.484 20.5596 16.4374C20.5111 16.3908 20.4826 16.3272 20.48 16.26C20.48 16.1911 20.5074 16.1249 20.5562 16.0762C20.6049 16.0274 20.671 16 20.74 16H25.84C25.909 16 25.9751 16.0274 26.0239 16.0762C26.0726 16.1249 26.1 16.1911 26.1 16.26C26.0974 16.3272 26.0689 16.3908 26.0204 16.4374C25.9719 16.484 25.9073 16.5101 25.84 16.51Z" fill="url(#paint11_linear_218_3014)"></path><path d="M11.0998 24.0001C9.39461 24.0781 7.70916 23.6086 6.28985 22.6602C5.60316 22.1451 5.05415 21.4686 4.69134 20.6907C4.32852 19.9127 4.16316 19.0572 4.20989 18.2001C4.30017 17.1803 4.60308 16.1907 5.09911 15.295C5.59515 14.3994 6.27331 13.6177 7.0899 13.0001C7.44254 12.7212 7.74369 12.3827 7.97985 12.0001C8.87985 10.5501 7.97986 8.94012 7.17986 7.37012C6.96986 6.98012 6.77985 6.61012 6.60985 6.25012C6.51887 6.12469 6.46032 5.97873 6.43938 5.8252C6.41845 5.67166 6.43578 5.51533 6.48986 5.37012C6.71986 4.92012 7.31987 4.85008 7.74987 4.83008C8.14534 4.84211 8.53383 4.93756 8.88988 5.11011C9.11248 5.22102 9.35273 5.29205 9.59984 5.32007H9.73986C9.83698 5.28542 9.93074 5.2419 10.0199 5.19006C10.1134 5.13413 10.2102 5.08413 10.3099 5.04016C10.5401 4.93978 10.7887 4.88866 11.0398 4.89014C11.2697 4.88773 11.4976 4.93196 11.7099 5.02014C11.8854 5.08858 12.0531 5.17576 12.2099 5.28015C12.3469 5.37516 12.499 5.44614 12.6598 5.49011C12.9144 5.47447 13.1629 5.40643 13.3899 5.29016L13.5599 5.22009C13.8546 5.09423 14.1697 5.02311 14.4899 5.01013C14.7211 5.00402 14.9472 5.07819 15.1299 5.22009C15.26 5.34927 15.3411 5.5197 15.3594 5.70215C15.3776 5.8846 15.3318 6.0677 15.2298 6.22009C15.0299 6.71009 14.8398 7.09009 14.6598 7.47009C14.1049 8.44364 13.764 9.52439 13.6598 10.6401C13.6483 10.9407 13.6994 11.2404 13.8099 11.5201V11.6501C14.2319 12.5632 14.858 13.3672 15.6399 14.0001C16.6999 15.0001 17.8999 16.1401 17.8999 18.1501C17.9466 19.0073 17.7813 19.8627 17.4184 20.6406C17.0556 21.4186 16.5066 22.095 15.8199 22.6101C14.4316 23.5578 12.7801 24.0441 11.0998 24.0001ZM7.53985 6.00012C7.71985 6.36012 7.88989 6.68012 8.07989 7.00012C8.99989 8.73012 10.0799 10.6901 8.8399 12.6301C8.54294 13.0948 8.16729 13.5042 7.72985 13.8401C7.02955 14.3611 6.44558 15.0223 6.01513 15.7816C5.58468 16.5409 5.31722 17.3817 5.22985 18.2501C5.22985 22.5701 9.32984 23.0402 11.0998 23.0402C12.8698 23.0402 16.9599 22.5701 16.9599 18.2501C16.9599 16.6801 16.0699 15.8301 15.0299 14.8401C14.1226 14.1086 13.4055 13.1685 12.9399 12.1001L12.8799 11.9401C12.7389 11.5419 12.6678 11.1224 12.6699 10.7001C12.7829 9.46204 13.1579 8.26228 13.7699 7.18018C13.9299 6.85018 14.0899 6.52018 14.2399 6.18018L13.9798 6.28015H13.8599C13.5173 6.45215 13.1427 6.55083 12.7599 6.57007C12.6702 6.57998 12.5796 6.57998 12.4899 6.57007C12.2087 6.50361 11.9414 6.38858 11.6999 6.2301C11.5921 6.15159 11.4744 6.08776 11.3498 6.04016C11.2552 5.9992 11.153 5.97869 11.0499 5.9801C10.9365 5.98312 10.8247 6.00692 10.7198 6.05017L10.5299 6.15015C10.3622 6.25295 10.1802 6.33043 9.98986 6.38013C9.86895 6.41145 9.74475 6.42829 9.61986 6.43018C9.23979 6.41379 8.86787 6.31479 8.5299 6.14014C8.30617 6.03399 8.06611 5.9663 7.81988 5.94006V5.69006V5.94006L7.53985 6.00012Z" fill="url(#paint12_linear_218_3014)"></path><path d="M11.0998 23.78C9.44923 23.8531 7.81792 23.4015 6.43986 22.49C5.78246 21.9986 5.25613 21.3529 4.90733 20.61C4.55853 19.867 4.39798 19.0497 4.43986 18.23C4.53172 17.2484 4.82727 16.2967 5.30766 15.4358C5.78806 14.5749 6.44272 13.8236 7.22984 13.23C7.60142 12.9566 7.91998 12.6177 8.16984 12.23C9.16984 10.66 8.24987 8.97999 7.37987 7.35999C7.17987 6.96999 6.97986 6.6 6.80986 6.25C6.72986 6.08 6.59988 5.84001 6.70988 5.64001C6.81988 5.44001 7.38988 5.24998 7.70988 5.22998C8.07872 5.24128 8.44058 5.33348 8.76988 5.5C9.07349 5.67124 9.42376 5.74125 9.76988 5.69995C9.88762 5.66061 10.0014 5.61049 10.1098 5.55005C10.1966 5.49745 10.2869 5.45067 10.3799 5.41003C10.7683 5.25479 11.2015 5.25479 11.5899 5.41003C11.7525 5.47792 11.9095 5.55814 12.0599 5.65002C12.2195 5.76547 12.3993 5.85025 12.5899 5.90002C12.9038 5.91775 13.2162 5.84477 13.4899 5.68994L13.6598 5.63C14.2898 5.37 14.7198 5.36 14.9798 5.63C15.2398 5.9 15.0898 6.17996 14.9798 6.32996C14.9761 6.35984 14.9761 6.39016 14.9798 6.42004C14.7998 6.84004 14.6098 7.24001 14.4198 7.63C13.859 8.619 13.5179 9.71725 13.4198 10.85C13.4074 11.1906 13.4618 11.5303 13.5799 11.85C13.584 11.8932 13.584 11.9367 13.5799 11.98C14.011 12.938 14.6619 13.7807 15.4798 14.4399C16.5498 15.4399 17.6598 16.4999 17.6598 18.4399C17.7017 19.2596 17.5412 20.0771 17.1924 20.8201C16.8436 21.563 16.3172 22.2086 15.6598 22.7C14.285 23.5152 12.6943 23.8921 11.0998 23.78ZM7.18986 5.78003C7.18986 5.84003 7.25988 5.91995 7.26988 5.94995V6.01001C7.42988 6.36001 7.61987 6.70997 7.81987 7.08997C8.71987 8.76997 9.72984 10.66 8.59984 12.48C8.31322 12.917 7.95485 13.3024 7.53984 13.62C6.81189 14.1666 6.20571 14.8588 5.75981 15.6525C5.31391 16.4461 5.03808 17.3239 4.94987 18.23C4.94987 22.78 9.22987 23.23 11.0699 23.23C12.9099 23.23 17.1799 22.74 17.1799 18.23C17.1799 16.55 16.1799 15.62 15.1799 14.64C14.3137 13.9266 13.6284 13.0186 13.1799 11.99V11.84C13.0426 11.4723 12.9747 11.0823 12.9798 10.6899C13.0937 9.48635 13.4618 8.32072 14.0599 7.27002C14.2399 6.89002 14.4298 6.48996 14.5998 6.07996L14.6598 5.96997C14.6598 5.96997 14.6598 5.89999 14.6598 5.85999C14.4004 5.83302 14.1389 5.88534 13.9098 6.01001L13.7499 6.07996C13.3813 6.27329 12.9638 6.35342 12.5498 6.31006C12.2981 6.25476 12.06 6.14928 11.8498 6C11.7285 5.92374 11.6014 5.85693 11.4698 5.80005C11.3383 5.74531 11.1973 5.71704 11.0549 5.71704C10.9124 5.71704 10.7714 5.74531 10.6399 5.80005L10.4198 5.91003C10.2729 5.99999 10.1149 6.07053 9.94987 6.12C9.4998 6.18877 9.0396 6.10799 8.63988 5.89001C8.37826 5.75896 8.09212 5.68406 7.79985 5.67004C7.59085 5.66067 7.38242 5.69825 7.18986 5.78003Z" fill="url(#paint13_linear_218_3014)"></path><path d="M7.34971 35.2499C7.2832 35.2499 7.21737 35.2367 7.15604 35.2109C7.09472 35.1852 7.03916 35.1473 6.99259 35.0998C6.94603 35.0523 6.9094 34.9961 6.88487 34.9343C6.86033 34.8725 6.84838 34.8063 6.84971 34.7398V25.8198C6.84838 25.7533 6.86033 25.6873 6.88487 25.6255C6.9094 25.5636 6.94603 25.5073 6.99259 25.4598C7.03916 25.4123 7.09472 25.3746 7.15604 25.3489C7.21737 25.3231 7.2832 25.3099 7.34971 25.3099C7.48497 25.3099 7.61472 25.3636 7.71037 25.4592C7.80601 25.5548 7.85972 25.6845 7.85972 25.8198V34.2398H28.5198V9.74986H16.2798C16.1445 9.74986 16.0148 9.69609 15.9191 9.60044C15.8235 9.5048 15.7698 9.37511 15.7698 9.23985C15.7697 9.17334 15.783 9.10744 15.8088 9.04612C15.8345 8.9848 15.8722 8.92923 15.9197 8.88267C15.9672 8.83611 16.0235 8.79953 16.0853 8.775C16.1471 8.75047 16.2133 8.73852 16.2798 8.73985H28.9997C29.1323 8.73985 29.2595 8.79256 29.3533 8.88633C29.4471 8.9801 29.4997 9.10724 29.4997 9.23985V34.7398C29.5011 34.8063 29.4891 34.8725 29.4646 34.9343C29.44 34.9961 29.4034 35.0523 29.3568 35.0998C29.3103 35.1473 29.2547 35.1852 29.1934 35.2109C29.1321 35.2367 29.0662 35.2499 28.9997 35.2499H7.34971Z" fill="url(#paint14_linear_218_3014)"></path><path d="M28.9998 35.0001H7.34981C7.31612 35.0001 7.28279 34.9934 7.25179 34.9802C7.22078 34.967 7.1928 34.9476 7.16945 34.9233C7.1461 34.899 7.12788 34.8703 7.11592 34.8389C7.10396 34.8074 7.09846 34.7738 7.09981 34.7401V25.8201C7.09976 25.7528 7.12582 25.6882 7.17244 25.6398C7.21906 25.5913 7.2826 25.5628 7.34981 25.5602C7.41876 25.5602 7.48495 25.5875 7.53371 25.6362C7.58247 25.685 7.60982 25.7511 7.60982 25.8201V34.4901H28.7699V9.4901H16.2799C16.2422 9.4976 16.2032 9.49663 16.1659 9.48729C16.1286 9.47795 16.0939 9.46053 16.0642 9.43614C16.0344 9.41176 16.0105 9.38106 15.994 9.3463C15.9776 9.31155 15.9691 9.27354 15.9691 9.23509C15.9691 9.19665 15.9776 9.15864 15.994 9.12389C16.0105 9.08913 16.0344 9.05856 16.0642 9.03417C16.0939 9.00978 16.1286 8.99224 16.1659 8.9829C16.2032 8.97356 16.2422 8.97259 16.2799 8.98009H28.9998C29.0661 8.98009 29.1297 9.00645 29.1766 9.05333C29.2235 9.10022 29.2498 9.16379 29.2498 9.23009V34.7301C29.2526 34.7646 29.2482 34.7992 29.2369 34.8319C29.2256 34.8646 29.2076 34.8945 29.1841 34.9199C29.1606 34.9453 29.1321 34.9656 29.1004 34.9794C29.0686 34.9932 29.0344 35.0002 28.9998 35.0001Z" fill="url(#paint15_linear_218_3014)"></path><path d="M13.0899 9.38037H8.62988C8.49181 9.38037 8.37988 9.4923 8.37988 9.63037V10.1404C8.37988 10.2785 8.49181 10.3904 8.62988 10.3904H13.0899C13.228 10.3904 13.3399 10.2785 13.3399 10.1404V9.63037C13.3399 9.4923 13.228 9.38037 13.0899 9.38037Z" fill="url(#paint16_linear_218_3014)"></path><path d="M13.0899 9.62988H8.62988V10.1399H13.0899V9.62988Z" fill="url(#paint17_linear_218_3014)"></path><path d="M13.7299 11.9302H8.62988C8.49181 11.9302 8.37988 12.0421 8.37988 12.1802V12.6901C8.37988 12.8281 8.49181 12.9401 8.62988 12.9401H13.7299C13.8679 12.9401 13.9799 12.8281 13.9799 12.6901V12.1802C13.9799 12.0421 13.8679 11.9302 13.7299 11.9302Z" fill="url(#paint18_linear_218_3014)"></path><path d="M13.7299 12.1802H8.62988V12.6901H13.7299V12.1802Z" fill="url(#paint19_linear_218_3014)"></path><defs><linearGradient id="paint0_linear_218_3014" x1="3.22977" y1="31.5601" x2="34.8199" y2="31.5601" gradientUnits="userSpaceOnUse"><stop stop-color="#0E4E95"></stop><stop offset="0.8" stop-color="#00B054"></stop></linearGradient><linearGradient id="paint1_linear_218_3014" x1="4.17983" y1="31.5601" x2="32.4996" y2="31.5601" gradientUnits="userSpaceOnUse"><stop stop-color="#0E4E95"></stop><stop offset="0.8" stop-color="#00B054"></stop></linearGradient><linearGradient id="paint2_linear_218_3014" x1="2.7899" y1="30.6002" x2="34.3701" y2="30.6002" gradientUnits="userSpaceOnUse"><stop stop-color="#0E4E95"></stop><stop offset="0.8" stop-color="#00B054"></stop></linearGradient><linearGradient id="paint3_linear_218_3014" x1="4.17994" y1="30.6002" x2="32.5001" y2="30.6002" gradientUnits="userSpaceOnUse"><stop stop-color="#0E4E95"></stop><stop offset="0.8" stop-color="#00B054"></stop></linearGradient><linearGradient id="paint4_linear_218_3014" x1="2.34972" y1="29.01" x2="33.9297" y2="29.01" gradientUnits="userSpaceOnUse"><stop stop-color="#0E4E95"></stop><stop offset="0.8" stop-color="#00B054"></stop></linearGradient><linearGradient id="paint5_linear_218_3014" x1="4.17984" y1="29.01" x2="32.5" y2="29.01" gradientUnits="userSpaceOnUse"><stop stop-color="#0E4E95"></stop><stop offset="0.8" stop-color="#00B054"></stop></linearGradient><linearGradient id="paint6_linear_218_3014" x1="1.9" y1="26.1402" x2="33.4898" y2="26.1402" gradientUnits="userSpaceOnUse"><stop stop-color="#0E4E95"></stop><stop offset="0.8" stop-color="#00B054"></stop></linearGradient><linearGradient id="paint7_linear_218_3014" x1="4.18005" y1="26.1401" x2="32.4998" y2="26.1401" gradientUnits="userSpaceOnUse"><stop stop-color="#0E4E95"></stop><stop offset="0.8" stop-color="#00B054"></stop></linearGradient><linearGradient id="paint8_linear_218_3014" x1="2.48008" y1="13.0703" x2="33.3301" y2="13.0703" gradientUnits="userSpaceOnUse"><stop stop-color="#0E4E95"></stop><stop offset="0.8" stop-color="#00B054"></stop></linearGradient><linearGradient id="paint9_linear_218_3014" x1="4.17999" y1="13.07" x2="32.5" y2="13.07" gradientUnits="userSpaceOnUse"><stop stop-color="#0E4E95"></stop><stop offset="0.8" stop-color="#00B054"></stop></linearGradient><linearGradient id="paint10_linear_218_3014" x1="2.47999" y1="16.26" x2="33.33" y2="16.26" gradientUnits="userSpaceOnUse"><stop stop-color="#0E4E95"></stop><stop offset="0.8" stop-color="#00B054"></stop></linearGradient><linearGradient id="paint11_linear_218_3014" x1="4.17999" y1="16.26" x2="32.5" y2="16.26" gradientUnits="userSpaceOnUse"><stop stop-color="#0E4E95"></stop><stop offset="0.8" stop-color="#00B054"></stop></linearGradient><linearGradient id="paint12_linear_218_3014" x1="3.91989" y1="14.4701" x2="33.3099" y2="14.4701" gradientUnits="userSpaceOnUse"><stop stop-color="#0E4E95"></stop><stop offset="0.8" stop-color="#00B054"></stop></linearGradient><linearGradient id="paint13_linear_218_3014" x1="4.17986" y1="14.47" x2="32.4998" y2="14.47" gradientUnits="userSpaceOnUse"><stop stop-color="#0E4E95"></stop><stop offset="0.8" stop-color="#00B054"></stop></linearGradient><linearGradient id="paint14_linear_218_3014" x1="3.86971" y1="21.9899" x2="32.8297" y2="21.9899" gradientUnits="userSpaceOnUse"><stop stop-color="#0E4E95"></stop><stop offset="0.8" stop-color="#00B054"></stop></linearGradient><linearGradient id="paint15_linear_218_3014" x1="4.17981" y1="21.9901" x2="32.4998" y2="21.9901" gradientUnits="userSpaceOnUse"><stop stop-color="#0E4E95"></stop><stop offset="0.8" stop-color="#00B054"></stop></linearGradient><linearGradient id="paint16_linear_218_3014" x1="3.42986" y1="9.88038" x2="34.93" y2="9.88038" gradientUnits="userSpaceOnUse"><stop stop-color="#0E4E95"></stop><stop offset="0.8" stop-color="#00B054"></stop></linearGradient><linearGradient id="paint17_linear_218_3014" x1="4.17986" y1="9.87989" x2="32.5" y2="9.87989" gradientUnits="userSpaceOnUse"><stop stop-color="#0E4E95"></stop><stop offset="0.8" stop-color="#00B054"></stop></linearGradient><linearGradient id="paint18_linear_218_3014" x1="3.4999" y1="12.4301" x2="34.5898" y2="12.4301" gradientUnits="userSpaceOnUse"><stop stop-color="#0E4E95"></stop><stop offset="0.8" stop-color="#00B054"></stop></linearGradient><linearGradient id="paint19_linear_218_3014" x1="4.1799" y1="12.4301" x2="32.4998" y2="12.4301" gradientUnits="userSpaceOnUse"><stop stop-color="#0E4E95"></stop><stop offset="0.8" stop-color="#00B054"></stop></linearGradient></defs></svg>