<svg
                    width="40"
                    height="40"
                    viewBox="0 0 40 40"
                    fill="none"
                    xmlns="http://www.w3.org/2000/svg"
                    class="md:w-10 md:h-10 w-8 h-8 aspect-square"
                  >
                    <path
                      d="M27.12 27.38C26.4896 27.3747 25.8694 27.2206 25.31 26.9301C25.1966 26.8783 25.1072 26.7853 25.06 26.67C25.0352 26.6133 25.0225 26.552 25.0225 26.4901C25.0225 26.4281 25.0352 26.3668 25.06 26.3101C25.0978 26.2275 25.1583 26.1573 25.2344 26.1077C25.3106 26.0582 25.3992 26.0312 25.49 26.03C25.5529 26.0196 25.6171 26.0196 25.68 26.03C26.1223 26.2699 26.6169 26.397 27.12 26.4H27.34C27.6135 26.3866 27.8744 26.2809 28.08 26.1C28.1922 26.0049 28.2805 25.8848 28.3378 25.7493C28.3951 25.6139 28.4199 25.4668 28.41 25.32C28.41 24.69 28.14 24.5801 27.22 24.2401C25.96 23.7801 25.34 23.1201 25.32 22.2401C25.316 22.0046 25.3588 21.7707 25.4459 21.5519C25.5329 21.3332 25.6625 21.1339 25.8271 20.9655C25.9917 20.7972 26.1881 20.6631 26.4049 20.5712C26.6217 20.4793 26.8546 20.4313 27.09 20.4301C27.2132 20.4206 27.3369 20.4206 27.46 20.4301C27.9966 20.4241 28.5249 20.5622 28.99 20.83C29.0419 20.8635 29.0867 20.9069 29.1218 20.9576C29.1569 21.0084 29.1817 21.0657 29.1947 21.126C29.2077 21.1864 29.2087 21.2487 29.1976 21.3094C29.1865 21.3702 29.1635 21.4282 29.13 21.48C29.0891 21.5469 29.0318 21.6022 28.9636 21.6407C28.8953 21.6792 28.8184 21.6996 28.74 21.7C28.6476 21.6979 28.5576 21.6702 28.48 21.6201C28.1735 21.4515 27.8298 21.3621 27.48 21.36H27.23C26.59 21.44 26.23 21.73 26.23 22.22C26.23 22.71 26.65 23.02 27.46 23.32C28.27 23.62 29.27 23.98 29.32 25.27C29.3331 25.5545 29.2814 25.8383 29.1688 26.0999C29.0562 26.3614 28.8856 26.594 28.67 26.78C28.3025 27.1085 27.8325 27.2993 27.34 27.32L27.12 27.38Z"
                      fill="url(#paint0_linear_205_2129)"
                    ></path>
                    <path
                      d="M27.12 27.1301C26.5235 27.1282 25.9365 26.9806 25.41 26.7001C25.383 26.6891 25.3583 26.6729 25.3375 26.6523C25.3168 26.6318 25.3004 26.6073 25.2892 26.5803C25.278 26.5533 25.2723 26.5243 25.2725 26.4951C25.2726 26.4659 25.2786 26.437 25.29 26.4101C25.3141 26.3571 25.3576 26.3152 25.4114 26.293C25.4652 26.2707 25.5255 26.2697 25.58 26.2901C26.1209 26.5867 26.7341 26.7253 27.35 26.6901C27.6812 26.6715 27.9973 26.5451 28.25 26.3301C28.3882 26.2042 28.4968 26.0492 28.5677 25.8763C28.6386 25.7033 28.6702 25.5167 28.66 25.3301C28.66 24.5001 28.19 24.3301 27.31 24.0101C26.21 23.6101 25.64 23.0101 25.62 22.2801C25.6 21.5501 26.18 20.8501 27.17 20.7301C27.7717 20.6459 28.3843 20.7656 28.91 21.0701C28.9347 21.0862 28.9558 21.1071 28.9722 21.1315C28.9886 21.156 29 21.1835 29.0056 21.2124C29.0112 21.2413 29.0109 21.2711 29.0048 21.2999C28.9987 21.3287 28.9869 21.3559 28.97 21.3801C28.9549 21.4044 28.9349 21.4254 28.9113 21.4417C28.8878 21.458 28.8611 21.4693 28.8329 21.4749C28.8048 21.4805 28.7759 21.4804 28.7479 21.4744C28.7198 21.4684 28.6933 21.4567 28.67 21.4401C28.2291 21.194 27.7209 21.0959 27.22 21.1601C26.78 21.2201 26.04 21.4301 26.06 22.2701C26.06 22.8201 26.54 23.2701 27.46 23.6001H27.51C28.4 23.9301 29.11 24.1901 29.15 25.3101C29.1592 25.5577 29.1137 25.8043 29.0169 26.0324C28.9201 26.2605 28.7744 26.4645 28.59 26.6301C28.2582 26.9108 27.844 27.0758 27.41 27.1001L27.12 27.1301Z"
                      fill="url(#paint1_linear_205_2129)"
                    ></path>
                    <path
                      d="M27.21 21.34C27.0871 21.3374 26.9701 21.2868 26.8841 21.1989C26.7981 21.1111 26.75 20.993 26.75 20.8701V20.26C26.7664 20.1484 26.8224 20.0465 26.9078 19.9727C26.9931 19.899 27.1022 19.8584 27.215 19.8584C27.3278 19.8584 27.4368 19.899 27.5222 19.9727C27.6076 20.0465 27.6636 20.1484 27.68 20.26V20.8701C27.68 20.9318 27.6678 20.9928 27.6442 21.0499C27.6206 21.1069 27.586 21.1587 27.5424 21.2024C27.4987 21.246 27.4469 21.2806 27.3899 21.3043C27.3329 21.3279 27.2717 21.34 27.21 21.34V21.34Z"
                      fill="url(#paint2_linear_205_2129)"
                    ></path>
                    <path
                      d="M27.21 21.09C27.1816 21.0901 27.1534 21.0843 27.1273 21.0731C27.1011 21.0619 27.0775 21.0456 27.0579 21.025C27.0382 21.0044 27.0229 20.9801 27.013 20.9535C27.003 20.9268 26.9986 20.8985 27 20.8701V20.26C27 20.2324 27.0054 20.2052 27.016 20.1797C27.0265 20.1542 27.042 20.131 27.0615 20.1115C27.081 20.092 27.1042 20.0766 27.1296 20.066C27.1551 20.0555 27.1824 20.05 27.21 20.05C27.2384 20.0487 27.2668 20.0531 27.2935 20.063C27.3201 20.073 27.3444 20.0883 27.365 20.1079C27.3856 20.1275 27.402 20.1511 27.4131 20.1773C27.4243 20.2035 27.43 20.2316 27.43 20.26V20.8701C27.4314 20.8993 27.4267 20.9285 27.4162 20.9559C27.4056 20.9832 27.3895 21.008 27.3688 21.0287C27.348 21.0495 27.3232 21.0656 27.2958 21.0762C27.2685 21.0867 27.2393 21.0915 27.21 21.09V21.09Z"
                      fill="url(#paint3_linear_205_2129)"
                    ></path>
                    <path
                      d="M27.2101 28.0601C27.0872 28.0574 26.9702 28.0067 26.8842 27.9189C26.7982 27.831 26.7501 27.713 26.7501 27.59V26.98C26.7403 26.9133 26.745 26.8451 26.7638 26.7803C26.7827 26.7155 26.8153 26.6555 26.8594 26.6044C26.9036 26.5533 26.9581 26.5124 27.0195 26.4843C27.0809 26.4562 27.1476 26.4417 27.2151 26.4417C27.2826 26.4417 27.3493 26.4562 27.4107 26.4843C27.4721 26.5124 27.5267 26.5533 27.5708 26.6044C27.6149 26.6555 27.6475 26.7155 27.6664 26.7803C27.6852 26.8451 27.6899 26.9133 27.6801 26.98V27.59C27.6776 27.7139 27.6272 27.832 27.5396 27.9196C27.452 28.0072 27.334 28.0575 27.2101 28.0601V28.0601Z"
                      fill="url(#paint4_linear_205_2129)"
                    ></path>
                    <path
                      d="M27.21 27.8101C27.1816 27.8101 27.1534 27.8043 27.1273 27.7932C27.1011 27.782 27.0775 27.7656 27.0579 27.7451C27.0382 27.7245 27.0229 27.7001 27.013 27.6735C27.003 27.6468 26.9986 27.6184 27 27.59V26.98C26.9986 26.9516 27.003 26.9233 27.013 26.8966C27.0229 26.87 27.0382 26.8456 27.0579 26.825C27.0775 26.8044 27.1011 26.7881 27.1273 26.7769C27.1534 26.7657 27.1816 26.76 27.21 26.76C27.2393 26.7586 27.2685 26.7633 27.2958 26.7739C27.3232 26.7844 27.348 26.8006 27.3688 26.8213C27.3895 26.842 27.4056 26.8668 27.4162 26.8942C27.4267 26.9215 27.4314 26.9508 27.43 26.98V27.59C27.43 27.6484 27.4068 27.7044 27.3655 27.7456C27.3243 27.7869 27.2684 27.8101 27.21 27.8101Z"
                      fill="url(#paint5_linear_205_2129)"
                    ></path>
                    <path
                      d="M27.25 30.53C25.2999 30.6115 23.3702 30.1064 21.71 29.08C20.9352 28.5414 20.3102 27.8146 19.8938 26.9679C19.4774 26.1212 19.2834 25.1824 19.33 24.24C19.33 21.93 21.12 19.75 22.66 18.59C23.0723 18.293 23.4308 17.9277 23.72 17.5099C24.79 15.8999 23.72 14.02 22.79 12.37C22.55 11.94 22.32 11.54 22.12 11.14C22.0255 11.0106 21.9634 10.8604 21.939 10.702C21.9147 10.5437 21.9287 10.3818 21.98 10.23C22.17 9.88998 22.59 9.72995 23.35 9.69995C23.7927 9.71086 24.2285 9.81297 24.63 9.99994C24.9111 10.1293 25.212 10.2104 25.52 10.24C25.583 10.2496 25.6471 10.2496 25.71 10.24C25.8368 10.2081 25.9581 10.1575 26.07 10.09C26.1738 10.034 26.2806 9.98387 26.39 9.93994C26.6429 9.83221 26.9152 9.77777 27.19 9.77997C27.4393 9.77742 27.6869 9.82152 27.92 9.90997C28.1184 9.98505 28.3093 10.0788 28.49 10.1899C28.6658 10.3025 28.8581 10.3869 29.06 10.4399H29.19C29.4846 10.4138 29.7723 10.3359 30.04 10.21L30.23 10.14C30.5469 10.0043 30.8856 9.92638 31.23 9.90997C31.468 9.89912 31.7021 9.97361 31.89 10.12C32.0237 10.2471 32.1073 10.4179 32.1257 10.6014C32.144 10.7849 32.0959 10.969 31.99 11.12H31.72L31.94 11.22C31.74 11.68 31.51 12.13 31.29 12.55C30.65 13.6031 30.2505 14.7845 30.12 16.0099C30.1064 16.3524 30.1678 16.6937 30.3 17.0099L30.36 17.16C30.8499 18.1742 31.5607 19.066 32.44 19.77C33.69 20.92 34.98 22.1 34.98 24.28C35.01 28.21 32.18 30.53 27.25 30.53ZM22.94 10.68C23.16 11.12 23.37 11.5 23.6 11.9C24.68 13.8 25.89 15.9 24.5 18.03C24.1567 18.5381 23.7228 18.9788 23.22 19.33C21.86 20.33 20.22 22.27 20.22 24.24C20.22 29.07 25.1 29.59 27.22 29.59C28.9491 29.6751 30.6626 29.2284 32.13 28.31C32.7611 27.8433 33.2661 27.2269 33.5995 26.5164C33.9329 25.8059 34.0843 25.0236 34.04 24.24C34.04 22.47 33.04 21.52 31.82 20.43C30.8171 19.6283 30.0185 18.6001 29.49 17.43L29.42 17.2599C29.2513 16.8338 29.1697 16.3782 29.18 15.92C29.3101 14.5564 29.7478 13.24 30.46 12.0699C30.68 11.6499 30.89 11.2399 31.07 10.8199C30.8837 10.8435 30.7018 10.8941 30.53 10.97L30.35 11.04C29.9749 11.2101 29.5713 11.3084 29.16 11.33H28.87C28.5588 11.264 28.2634 11.1384 28 10.96C27.8618 10.8799 27.7181 10.8097 27.57 10.7499C27.4388 10.7017 27.2998 10.678 27.16 10.68C27.0099 10.6814 26.8611 10.7085 26.72 10.7599L26.49 10.8799C26.3012 10.9855 26.0995 11.0662 25.89 11.12C25.7538 11.1353 25.6162 11.1353 25.48 11.12C25.0601 11.0977 24.6489 10.9923 24.27 10.81C23.992 10.6836 23.6943 10.6057 23.39 10.58V10.33V10.58C23.2379 10.587 23.087 10.6105 22.94 10.65V10.68Z"
                      fill="url(#paint6_linear_205_2129)"
                    ></path>
                    <path
                      d="M27.2498 30.25C25.352 30.3355 23.4727 29.8439 21.8598 28.84C21.1174 28.3258 20.5185 27.6308 20.1195 26.8207C19.7206 26.0105 19.5348 25.112 19.5798 24.21C19.5798 21.99 21.3198 19.88 22.8098 18.76C23.2445 18.4456 23.6231 18.0602 23.9298 17.6201C25.0898 15.8801 23.9798 13.93 23.0098 12.22C22.7698 11.79 22.5399 11.39 22.3399 11V10.95C22.2399 10.77 22.1099 10.52 22.2199 10.32C22.3299 10.12 22.7298 9.94004 23.3798 9.92004C23.7915 9.93071 24.1966 10.026 24.5698 10.2C24.9434 10.3997 25.3692 10.48 25.7898 10.4301C25.9374 10.3897 26.0788 10.3291 26.2099 10.25C26.306 10.1955 26.4063 10.1487 26.5098 10.11C26.9447 9.94479 27.425 9.94479 27.8598 10.11C28.0443 10.1839 28.2217 10.2742 28.3898 10.38C28.5897 10.5083 28.8093 10.6029 29.0398 10.66C29.4235 10.6816 29.8063 10.6024 30.1499 10.4301L30.3298 10.35C31.0398 10.09 31.5098 10.07 31.7898 10.29C32.0698 10.51 31.8998 10.83 31.7898 11C31.7844 11.0331 31.7844 11.0669 31.7898 11.1C31.5798 11.56 31.3598 12 31.1398 12.42C30.4839 13.5045 30.0742 14.7198 29.9398 15.98C29.9321 16.3499 30.0002 16.7175 30.1398 17.0601L30.1998 17.21C30.699 18.2664 31.4346 19.1937 32.3498 19.92C33.5498 21.02 34.7998 22.1701 34.7998 24.2401C34.7598 28.0501 32.0198 30.25 27.2498 30.25ZM22.6298 10.53C22.6604 10.6095 22.6972 10.6863 22.7398 10.76V10.82C22.9298 11.2 23.1498 11.59 23.3898 12.01C24.3898 13.84 25.5998 15.9001 24.2998 17.8701C23.9643 18.354 23.5483 18.7768 23.0698 19.1201C21.6698 20.1801 20.0199 22.12 20.0199 24.22C20.0199 29.27 25.0698 29.82 27.2498 29.82C29.0134 29.8991 30.7587 29.4349 32.2498 28.4901C32.9134 28.002 33.444 27.3555 33.7934 26.6096C34.1428 25.8637 34.2997 25.0422 34.2498 24.22C34.2498 22.34 33.1298 21.31 31.9498 20.22C30.9785 19.4547 30.2008 18.4716 29.6798 17.35L29.6198 17.19C29.4548 16.7945 29.3764 16.3683 29.3898 15.94C29.5175 14.6147 29.945 13.3358 30.6398 12.2C30.8498 11.78 31.0799 11.35 31.2799 10.9C31.2917 10.8564 31.3121 10.8156 31.3399 10.78C31.3675 10.7218 31.3909 10.6616 31.4099 10.6C31.3399 10.6 31.1099 10.4801 30.4099 10.7401L30.2298 10.8101C29.8126 11.0202 29.3452 11.1101 28.8798 11.07C28.5983 11.01 28.3304 10.8981 28.0899 10.7401C27.9438 10.6495 27.7899 10.5725 27.6298 10.51C27.3072 10.3906 26.9525 10.3906 26.6298 10.51L26.3698 10.64C26.2046 10.7313 26.0303 10.805 25.8498 10.86C25.3425 10.9309 24.8257 10.8436 24.3698 10.61C24.0566 10.4606 23.7165 10.3755 23.3698 10.36C22.8198 10.38 22.6298 10.47 22.6298 10.53Z"
                      fill="url(#paint7_linear_205_2129)"
                    ></path>
                    <path
                      d="M24.7698 15.85C24.6452 15.85 24.5256 15.8005 24.4375 15.7123C24.3494 15.6242 24.2998 15.5047 24.2998 15.38C24.2998 15.2554 24.3494 15.1358 24.4375 15.0477C24.5256 14.9595 24.6452 14.91 24.7698 14.91H29.0498C29.1745 14.91 29.294 14.9595 29.3821 15.0477C29.4703 15.1358 29.5198 15.2554 29.5198 15.38C29.5198 15.5047 29.4703 15.6242 29.3821 15.7123C29.294 15.8005 29.1745 15.85 29.0498 15.85H24.7698Z"
                      fill="url(#paint8_linear_205_2129)"
                    ></path>
                    <path
                      d="M29.0498 15.6H24.7698C24.7115 15.6 24.6555 15.5768 24.6143 15.5356C24.573 15.4943 24.5498 15.4384 24.5498 15.38C24.5498 15.3217 24.573 15.2657 24.6143 15.2245C24.6555 15.1832 24.7115 15.16 24.7698 15.16H29.0498C29.1082 15.16 29.1641 15.1832 29.2054 15.2245C29.2466 15.2657 29.2698 15.3217 29.2698 15.38C29.2698 15.4384 29.2466 15.4943 29.2054 15.5356C29.1641 15.5768 29.1082 15.6 29.0498 15.6V15.6Z"
                      fill="url(#paint9_linear_205_2129)"
                    ></path>
                    <path
                      d="M24.16 18.2901C24.0484 18.2737 23.9464 18.2177 23.8726 18.1323C23.7989 18.047 23.7583 17.9379 23.7583 17.8251C23.7583 17.7123 23.7989 17.6033 23.8726 17.5179C23.9464 17.4325 24.0484 17.3765 24.16 17.3601H29.6299C29.7415 17.3765 29.8435 17.4325 29.9172 17.5179C29.991 17.6033 30.0316 17.7123 30.0316 17.8251C30.0316 17.9379 29.991 18.047 29.9172 18.1323C29.8435 18.2177 29.7415 18.2737 29.6299 18.2901H24.16Z"
                      fill="url(#paint10_linear_205_2129)"
                    ></path>
                    <path
                      d="M29.6299 18.0401H24.1299C24.0715 18.0401 24.0156 18.0169 23.9743 17.9756C23.933 17.9344 23.9099 17.8784 23.9099 17.8201C23.9099 17.7617 23.933 17.7058 23.9743 17.6646C24.0156 17.6233 24.0715 17.6001 24.1299 17.6001H29.6299C29.6583 17.6001 29.6865 17.6058 29.7126 17.617C29.7388 17.6282 29.7624 17.6445 29.782 17.6651C29.8017 17.6857 29.8169 17.71 29.8268 17.7366C29.8368 17.7633 29.8413 17.7917 29.8399 17.8201C29.8413 17.8485 29.8368 17.8769 29.8268 17.9035C29.8169 17.9301 29.8017 17.9545 29.782 17.9751C29.7624 17.9957 29.7388 18.012 29.7126 18.0232C29.6865 18.0344 29.6583 18.0401 29.6299 18.0401V18.0401Z"
                      fill="url(#paint11_linear_205_2129)"
                    ></path>
                    <path
                      d="M6.47003 32.94C6.34538 32.94 6.22578 32.8905 6.13763 32.8024C6.04949 32.7142 6 32.5947 6 32.47V7.47003C6 7.34538 6.04949 7.22584 6.13763 7.1377C6.22578 7.04955 6.34538 7 6.47003 7H24.16C24.2218 7 24.2828 7.01221 24.3398 7.03583C24.3969 7.05945 24.4487 7.09405 24.4924 7.1377C24.536 7.18134 24.5706 7.23314 24.5942 7.29016C24.6179 7.34718 24.63 7.40831 24.63 7.47003V8.08002C24.6398 8.1468 24.6351 8.21491 24.6163 8.27972C24.5974 8.34454 24.5648 8.40454 24.5207 8.45563C24.4766 8.50671 24.422 8.54765 24.3606 8.57574C24.2992 8.60383 24.2325 8.61841 24.165 8.61841C24.0975 8.61841 24.0308 8.60383 23.9694 8.57574C23.908 8.54765 23.8534 8.50671 23.8093 8.45563C23.7652 8.40454 23.7326 8.34454 23.7137 8.27972C23.6949 8.21491 23.6902 8.1468 23.7 8.08002V7.94H6.94V32.02H23.7V31.88C23.6902 31.8132 23.6949 31.7451 23.7137 31.6803C23.7326 31.6155 23.7652 31.5555 23.8093 31.5045C23.8534 31.4534 23.908 31.4124 23.9694 31.3843C24.0308 31.3562 24.0975 31.3417 24.165 31.3417C24.2325 31.3417 24.2992 31.3562 24.3606 31.3843C24.422 31.4124 24.4766 31.4534 24.5207 31.5045C24.5648 31.5555 24.5974 31.6155 24.6163 31.6803C24.6351 31.7451 24.6398 31.8132 24.63 31.88V32.4901C24.63 32.6147 24.5805 32.7342 24.4924 32.8224C24.4042 32.9105 24.2847 32.96 24.16 32.96L6.47003 32.94Z"
                      fill="url(#paint12_linear_205_2129)"
                    ></path>
                    <path
                      d="M24.16 32.69H6.47003C6.44114 32.69 6.41249 32.6843 6.3858 32.6733C6.35911 32.6622 6.33488 32.646 6.31445 32.6256C6.29402 32.6052 6.27778 32.5809 6.26672 32.5542C6.25567 32.5275 6.25 32.4989 6.25 32.47V7.47003C6.25 7.44114 6.25567 7.41256 6.26672 7.38586C6.27778 7.35917 6.29402 7.33488 6.31445 7.31445C6.33488 7.29402 6.35911 7.27784 6.3858 7.26678C6.41249 7.25573 6.44114 7.25 6.47003 7.25H24.16C24.2184 7.25 24.2743 7.2732 24.3156 7.31445C24.3568 7.35571 24.38 7.41168 24.38 7.47003V8.08002C24.38 8.13836 24.3568 8.19434 24.3156 8.2356C24.2743 8.27685 24.2184 8.30005 24.16 8.30005C24.1017 8.30005 24.0457 8.27685 24.0045 8.2356C23.9632 8.19434 23.94 8.13836 23.94 8.08002V7.69H6.69V32.27H23.94V31.88C23.94 31.8217 23.9632 31.7657 24.0045 31.7245C24.0457 31.6832 24.1017 31.66 24.16 31.66C24.2184 31.66 24.2743 31.6832 24.3156 31.7245C24.3568 31.7657 24.38 31.8217 24.38 31.88V32.4901C24.375 32.5449 24.3496 32.5958 24.3089 32.6328C24.2682 32.6698 24.2151 32.6902 24.16 32.69V32.69Z"
                      fill="url(#paint13_linear_205_2129)"
                    ></path>
                    <path
                      d="M8.90997 15.85C8.78532 15.85 8.66572 15.8005 8.57758 15.7123C8.48943 15.6242 8.43994 15.5047 8.43994 15.38V10.53C8.43994 10.4054 8.48943 10.2858 8.57758 10.1977C8.66572 10.1096 8.78532 10.0601 8.90997 10.0601H19.91C20.0346 10.0601 20.1542 10.1096 20.2423 10.1977C20.3305 10.2858 20.3799 10.4054 20.3799 10.53C20.3799 10.6547 20.3305 10.7742 20.2423 10.8624C20.1542 10.9505 20.0346 11 19.91 11H9.37994V14.94H21.72C21.8446 14.94 21.9642 14.9896 22.0523 15.0777C22.1404 15.1658 22.1899 15.2854 22.1899 15.41C22.1899 15.5347 22.1404 15.6542 22.0523 15.7424C21.9642 15.8305 21.8446 15.88 21.72 15.88L8.90997 15.85Z"
                      fill="url(#paint14_linear_205_2129)"
                    ></path>
                    <path
                      d="M21.7202 15.6H8.91022C8.85187 15.6 8.7959 15.5768 8.75464 15.5356C8.71338 15.4943 8.69019 15.4384 8.69019 15.38V10.53C8.69019 10.4717 8.71338 10.4157 8.75464 10.3745C8.7959 10.3332 8.85187 10.3101 8.91022 10.3101H19.9102C19.9686 10.3101 20.0245 10.3332 20.0657 10.3745C20.107 10.4157 20.1302 10.4717 20.1302 10.53C20.1302 10.5884 20.107 10.6443 20.0657 10.6856C20.0245 10.7269 19.9686 10.75 19.9102 10.75H9.13019V15.19H21.7202C21.7786 15.19 21.8345 15.2132 21.8757 15.2545C21.917 15.2957 21.9402 15.3517 21.9402 15.41C21.9402 15.4684 21.917 15.5244 21.8757 15.5656C21.8345 15.6069 21.7786 15.63 21.7202 15.63V15.6Z"
                      fill="url(#paint15_linear_205_2129)"
                    ></path>
                    <path
                      d="M8.90997 29.89C8.78612 29.8874 8.66804 29.8371 8.58044 29.7495C8.49285 29.6619 8.4425 29.5438 8.43994 29.42V18.42C8.4425 18.2961 8.49285 18.178 8.58044 18.0905C8.66804 18.0029 8.78612 17.9525 8.90997 17.95H19.91C20.0338 17.9525 20.1518 18.0029 20.2394 18.0905C20.327 18.178 20.3774 18.2961 20.3799 18.42C20.3799 18.5446 20.3305 18.6642 20.2423 18.7523C20.1542 18.8405 20.0346 18.89 19.91 18.89H9.37994V29.41C9.37997 29.5356 9.33079 29.6562 9.24292 29.7459C9.15505 29.8356 9.03554 29.8873 8.90997 29.89V29.89Z"
                      fill="url(#paint16_linear_205_2129)"
                    ></path>
                    <path
                      d="M8.91022 29.64C8.85187 29.64 8.7959 29.6168 8.75464 29.5756C8.71338 29.5343 8.69019 29.4783 8.69019 29.42V18.42C8.69019 18.3911 8.69585 18.3624 8.70691 18.3358C8.71797 18.3091 8.73421 18.2848 8.75464 18.2644C8.77507 18.244 8.7993 18.2278 8.82599 18.2167C8.85268 18.2057 8.88133 18.2 8.91022 18.2H19.9102C19.9391 18.2 19.9677 18.2057 19.9944 18.2167C20.0211 18.2278 20.0453 18.244 20.0657 18.2644C20.0862 18.2848 20.1024 18.3091 20.1135 18.3358C20.1245 18.3624 20.1302 18.3911 20.1302 18.42C20.1302 18.4783 20.107 18.5343 20.0657 18.5756C20.0245 18.6168 19.9686 18.64 19.9102 18.64H9.13019V29.41C9.13154 29.4397 9.12684 29.4694 9.11639 29.4973C9.10595 29.5251 9.08996 29.5505 9.0694 29.572C9.04883 29.5935 9.02413 29.6106 8.99677 29.6223C8.9694 29.634 8.93997 29.64 8.91022 29.64V29.64Z"
                      fill="url(#paint17_linear_205_2129)"
                    ></path>
                    <path
                      d="M8.90997 26.22C8.84319 26.2298 8.77508 26.2252 8.71027 26.2063C8.64545 26.1874 8.58545 26.1548 8.53436 26.1107C8.48328 26.0666 8.44227 26.012 8.41418 25.9506C8.38609 25.8892 8.37158 25.8225 8.37158 25.755C8.37158 25.6875 8.38609 25.6208 8.41418 25.5594C8.44227 25.4981 8.48328 25.4435 8.53436 25.3993C8.58545 25.3552 8.64545 25.3226 8.71027 25.3038C8.77508 25.2849 8.84319 25.2802 8.90997 25.29H17.45C17.5167 25.2802 17.5848 25.2849 17.6497 25.3038C17.7145 25.3226 17.7745 25.3552 17.8256 25.3993C17.8766 25.4435 17.9176 25.4981 17.9457 25.5594C17.9738 25.6208 17.9883 25.6875 17.9883 25.755C17.9883 25.8225 17.9738 25.8892 17.9457 25.9506C17.9176 26.012 17.8766 26.0666 17.8256 26.1107C17.7745 26.1548 17.7145 26.1874 17.6497 26.2063C17.5848 26.2252 17.5167 26.2298 17.45 26.22H8.90997Z"
                      fill="url(#paint18_linear_205_2129)"
                    ></path>
                    <path
                      d="M17.4502 25.97H8.91022C8.87811 25.977 8.84483 25.9767 8.81287 25.9691C8.7809 25.9615 8.75104 25.9469 8.72546 25.9263C8.69989 25.9056 8.67927 25.8796 8.6651 25.85C8.65093 25.8203 8.64355 25.7879 8.64355 25.755C8.64355 25.7222 8.65093 25.6897 8.6651 25.6601C8.67927 25.6305 8.69989 25.6044 8.72546 25.5837C8.75104 25.5631 8.7809 25.5485 8.81287 25.541C8.84483 25.5334 8.87811 25.5331 8.91022 25.54H17.4502C17.4823 25.5331 17.5155 25.5334 17.5475 25.541C17.5795 25.5485 17.6094 25.5631 17.6349 25.5837C17.6605 25.6044 17.6811 25.6305 17.6953 25.6601C17.7095 25.6897 17.7168 25.7222 17.7168 25.755C17.7168 25.7879 17.7095 25.8203 17.6953 25.85C17.6811 25.8796 17.6605 25.9056 17.6349 25.9263C17.6094 25.9469 17.5795 25.9615 17.5475 25.9691C17.5155 25.9767 17.4823 25.977 17.4502 25.97Z"
                      fill="url(#paint19_linear_205_2129)"
                    ></path>
                    <path
                      d="M8.90997 22.53C8.84319 22.5398 8.77508 22.5351 8.71027 22.5162C8.64545 22.4974 8.58545 22.4648 8.53436 22.4206C8.48328 22.3765 8.44227 22.3219 8.41418 22.2606C8.38609 22.1992 8.37158 22.1324 8.37158 22.0649C8.37158 21.9974 8.38609 21.9308 8.41418 21.8694C8.44227 21.808 8.48328 21.7534 8.53436 21.7093C8.58545 21.6652 8.64545 21.6326 8.71027 21.6137C8.77508 21.5948 8.84319 21.5901 8.90997 21.6H17.45C17.5167 21.5901 17.5848 21.5948 17.6497 21.6137C17.7145 21.6326 17.7745 21.6652 17.8256 21.7093C17.8766 21.7534 17.9176 21.808 17.9457 21.8694C17.9738 21.9308 17.9883 21.9974 17.9883 22.0649C17.9883 22.1324 17.9738 22.1992 17.9457 22.2606C17.9176 22.3219 17.8766 22.3765 17.8256 22.4206C17.7745 22.4648 17.7145 22.4974 17.6497 22.5162C17.5848 22.5351 17.5167 22.5398 17.45 22.53H8.90997Z"
                      fill="url(#paint20_linear_205_2129)"
                    ></path>
                    <path
                      d="M17.4502 22.3101H8.91022C8.87811 22.317 8.84483 22.3166 8.81287 22.3091C8.7809 22.3015 8.75104 22.2869 8.72546 22.2663C8.69989 22.2457 8.67927 22.2196 8.6651 22.1899C8.65093 22.1603 8.64355 22.1279 8.64355 22.095C8.64355 22.0622 8.65093 22.0298 8.6651 22.0001C8.67927 21.9705 8.69989 21.9444 8.72546 21.9238C8.75104 21.9031 8.7809 21.8885 8.81287 21.8809C8.84483 21.8733 8.87811 21.873 8.91022 21.88H17.4502C17.4823 21.873 17.5155 21.8733 17.5475 21.8809C17.5795 21.8885 17.6094 21.9031 17.6349 21.9238C17.6605 21.9444 17.6811 21.9705 17.6953 22.0001C17.7095 22.0298 17.7168 22.0622 17.7168 22.095C17.7168 22.1279 17.7095 22.1603 17.6953 22.1899C17.6811 22.2196 17.6605 22.2457 17.6349 22.2663C17.6094 22.2869 17.5795 22.3015 17.5475 22.3091C17.5155 22.3166 17.4823 22.317 17.4502 22.3101V22.3101Z"
                      fill="url(#paint21_linear_205_2129)"
                    ></path>
                    <path
                      d="M13.1802 29.28C13.0555 29.28 12.936 29.2305 12.8478 29.1423C12.7597 29.0542 12.7102 28.9346 12.7102 28.81V18.43C12.7102 18.3053 12.7597 18.1858 12.8478 18.0977C12.936 18.0095 13.0555 17.96 13.1802 17.96C13.3048 17.96 13.4244 18.0095 13.5125 18.0977C13.6007 18.1858 13.6502 18.3053 13.6502 18.43V28.81C13.6502 28.9346 13.6007 29.0542 13.5125 29.1423C13.4244 29.2305 13.3048 29.28 13.1802 29.28V29.28Z"
                      fill="url(#paint22_linear_205_2129)"
                    ></path>
                    <path
                      d="M13.1802 29.03C13.1218 29.03 13.0659 29.0068 13.0246 28.9655C12.9833 28.9243 12.9602 28.8683 12.9602 28.81V18.43C12.9602 18.3716 12.9833 18.3157 13.0246 18.2744C13.0659 18.2332 13.1218 18.21 13.1802 18.21C13.2385 18.21 13.2945 18.2332 13.3358 18.2744C13.377 18.3157 13.4002 18.3716 13.4002 18.43V28.81C13.4002 28.8683 13.377 28.9243 13.3358 28.9655C13.2945 29.0068 13.2385 29.03 13.1802 29.03V29.03Z"
                      fill="url(#paint23_linear_205_2129)"
                    ></path>
                    <path
                      d="M17.45 29.28C17.3254 29.28 17.2058 29.2305 17.1177 29.1423C17.0295 29.0542 16.98 28.9346 16.98 28.81V18.43C16.98 18.3053 17.0295 18.1858 17.1177 18.0977C17.2058 18.0095 17.3254 17.96 17.45 17.96C17.5747 17.96 17.6942 18.0095 17.7823 18.0977C17.8705 18.1858 17.92 18.3053 17.92 18.43V28.81C17.92 28.9346 17.8705 29.0542 17.7823 29.1423C17.6942 29.2305 17.5747 29.28 17.45 29.28V29.28Z"
                      fill="url(#paint24_linear_205_2129)"
                    ></path>
                    <path
                      d="M17.45 29.03C17.4211 29.03 17.3925 29.0243 17.3658 29.0132C17.3392 29.0022 17.3149 28.9859 17.2944 28.9655C17.274 28.9451 17.2578 28.9209 17.2468 28.8942C17.2357 28.8675 17.23 28.8389 17.23 28.81V18.43C17.23 18.3716 17.2532 18.3157 17.2944 18.2744C17.3357 18.2332 17.3917 18.21 17.45 18.21C17.5084 18.21 17.5643 18.2332 17.6056 18.2744C17.6468 18.3157 17.67 18.3716 17.67 18.43V28.81C17.67 28.8683 17.6468 28.9243 17.6056 28.9655C17.5643 29.0068 17.5084 29.03 17.45 29.03V29.03Z"
                      fill="url(#paint25_linear_205_2129)"
                    ></path>
                    <path
                      d="M8.90997 29.89C8.78612 29.8874 8.66804 29.8371 8.58044 29.7495C8.49285 29.6619 8.4425 29.5438 8.43994 29.42C8.43994 29.2953 8.48943 29.1758 8.57758 29.0876C8.66572 28.9995 8.78532 28.95 8.90997 28.95H19.91C20.0346 28.95 20.1542 28.9995 20.2423 29.0876C20.3305 29.1758 20.3799 29.2953 20.3799 29.42C20.3774 29.5438 20.327 29.6619 20.2394 29.7495C20.1518 29.8371 20.0338 29.8874 19.91 29.89H8.90997Z"
                      fill="url(#paint26_linear_205_2129)"
                    ></path>
                    <path
                      d="M19.89 29.64H8.88995C8.83161 29.64 8.77563 29.6168 8.73438 29.5756C8.69312 29.5343 8.66992 29.4783 8.66992 29.42C8.66992 29.3911 8.67565 29.3624 8.68671 29.3358C8.69776 29.3091 8.71395 29.2848 8.73438 29.2644C8.7548 29.244 8.77903 29.2278 8.80573 29.2167C8.83242 29.2057 8.86106 29.2 8.88995 29.2H19.89C19.9188 29.2 19.9474 29.2057 19.9741 29.2167C20.0008 29.2278 20.0251 29.244 20.0455 29.2644C20.066 29.2848 20.0821 29.3091 20.0932 29.3358C20.1043 29.3624 20.1099 29.3911 20.1099 29.42C20.1099 29.4783 20.0868 29.5343 20.0455 29.5756C20.0043 29.6168 19.9483 29.64 19.89 29.64V29.64Z"
                      fill="url(#paint27_linear_205_2129)"
                    ></path>
                    <defs>
                      <linearGradient
                        id="paint0_linear_205_2129"
                        x1="-14.2898"
                        y1="23.92"
                        x2="58.2499"
                        y2="23.92"
                        gradientUnits="userSpaceOnUse"
                      >
                        <stop stop-color="#0E4E95"></stop>
                        <stop offset="0.8" stop-color="#00B054"></stop>
                      </linearGradient>
                      <linearGradient
                        id="paint1_linear_205_2129"
                        x1="-9.50038"
                        y1="23.9201"
                        x2="54.6603"
                        y2="23.9201"
                        gradientUnits="userSpaceOnUse"
                      >
                        <stop stop-color="#0E4E95"></stop>
                        <stop offset="0.8" stop-color="#00B054"></stop>
                      </linearGradient>
                      <linearGradient
                        id="paint2_linear_205_2129"
                        x1="-51.3494"
                        y1="20.57"
                        x2="85.9395"
                        y2="20.57"
                        gradientUnits="userSpaceOnUse"
                      >
                        <stop stop-color="#0E4E95"></stop>
                        <stop offset="0.8" stop-color="#00B054"></stop>
                      </linearGradient>
                      <linearGradient
                        id="paint3_linear_205_2129"
                        x1="-9.49957"
                        y1="20.57"
                        x2="54.6597"
                        y2="20.57"
                        gradientUnits="userSpaceOnUse"
                      >
                        <stop stop-color="#0E4E95"></stop>
                        <stop offset="0.8" stop-color="#00B054"></stop>
                      </linearGradient>
                      <linearGradient
                        id="paint4_linear_205_2129"
                        x1="-51.3488"
                        y1="27.28"
                        x2="85.9393"
                        y2="27.28"
                        gradientUnits="userSpaceOnUse"
                      >
                        <stop stop-color="#0E4E95"></stop>
                        <stop offset="0.8" stop-color="#00B054"></stop>
                      </linearGradient>
                      <linearGradient
                        id="paint5_linear_205_2129"
                        x1="-9.49957"
                        y1="27.28"
                        x2="54.6597"
                        y2="27.28"
                        gradientUnits="userSpaceOnUse"
                      >
                        <stop stop-color="#0E4E95"></stop>
                        <stop offset="0.8" stop-color="#00B054"></stop>
                      </linearGradient>
                      <linearGradient
                        id="paint6_linear_205_2129"
                        x1="-10.6999"
                        y1="20.08"
                        x2="55.5599"
                        y2="20.08"
                        gradientUnits="userSpaceOnUse"
                      >
                        <stop stop-color="#0E4E95"></stop>
                        <stop offset="0.8" stop-color="#00B054"></stop>
                      </linearGradient>
                      <linearGradient
                        id="paint7_linear_205_2129"
                        x1="-9.50009"
                        y1="20.08"
                        x2="54.6598"
                        y2="20.08"
                        gradientUnits="userSpaceOnUse"
                      >
                        <stop stop-color="#0E4E95"></stop>
                        <stop offset="0.8" stop-color="#00B054"></stop>
                      </linearGradient>
                      <linearGradient
                        id="paint8_linear_205_2129"
                        x1="-13.3704"
                        y1="15.38"
                        x2="57.61"
                        y2="15.38"
                        gradientUnits="userSpaceOnUse"
                      >
                        <stop stop-color="#0E4E95"></stop>
                        <stop offset="0.8" stop-color="#00B054"></stop>
                      </linearGradient>
                      <linearGradient
                        id="paint9_linear_205_2129"
                        x1="-9.50042"
                        y1="15.38"
                        x2="54.66"
                        y2="15.38"
                        gradientUnits="userSpaceOnUse"
                      >
                        <stop stop-color="#0E4E95"></stop>
                        <stop offset="0.8" stop-color="#00B054"></stop>
                      </linearGradient>
                      <linearGradient
                        id="paint10_linear_205_2129"
                        x1="-12.5601"
                        y1="17.8201"
                        x2="56.9899"
                        y2="17.8201"
                        gradientUnits="userSpaceOnUse"
                      >
                        <stop stop-color="#0E4E95"></stop>
                        <stop offset="0.8" stop-color="#00B054"></stop>
                      </linearGradient>
                      <linearGradient
                        id="paint11_linear_205_2129"
                        x1="-9.50004"
                        y1="17.8201"
                        x2="54.6599"
                        y2="17.8201"
                        gradientUnits="userSpaceOnUse"
                      >
                        <stop stop-color="#0E4E95"></stop>
                        <stop offset="0.8" stop-color="#00B054"></stop>
                      </linearGradient>
                      <linearGradient
                        id="paint12_linear_205_2129"
                        x1="-10.18"
                        y1="19.96"
                        x2="55.74"
                        y2="19.96"
                        gradientUnits="userSpaceOnUse"
                      >
                        <stop stop-color="#0E4E95"></stop>
                        <stop offset="0.8" stop-color="#00B054"></stop>
                      </linearGradient>
                      <linearGradient
                        id="paint13_linear_205_2129"
                        x1="-9.5"
                        y1="19.96"
                        x2="54.66"
                        y2="19.96"
                        gradientUnits="userSpaceOnUse"
                      >
                        <stop stop-color="#0E4E95"></stop>
                        <stop offset="0.8" stop-color="#00B054"></stop>
                      </linearGradient>
                      <linearGradient
                        id="paint14_linear_205_2129"
                        x1="-10.4301"
                        y1="12.94"
                        x2="56.1399"
                        y2="12.94"
                        gradientUnits="userSpaceOnUse"
                      >
                        <stop stop-color="#0E4E95"></stop>
                        <stop offset="0.8" stop-color="#00B054"></stop>
                      </linearGradient>
                      <linearGradient
                        id="paint15_linear_205_2129"
                        x1="-9.49981"
                        y1="12.94"
                        x2="54.6602"
                        y2="12.94"
                        gradientUnits="userSpaceOnUse"
                      >
                        <stop stop-color="#0E4E95"></stop>
                        <stop offset="0.8" stop-color="#00B054"></stop>
                      </linearGradient>
                      <linearGradient
                        id="paint16_linear_205_2129"
                        x1="-10.5401"
                        y1="23.93"
                        x2="56.42"
                        y2="23.93"
                        gradientUnits="userSpaceOnUse"
                      >
                        <stop stop-color="#0E4E95"></stop>
                        <stop offset="0.8" stop-color="#00B054"></stop>
                      </linearGradient>
                      <linearGradient
                        id="paint17_linear_205_2129"
                        x1="-9.49982"
                        y1="23.93"
                        x2="54.6602"
                        y2="23.93"
                        gradientUnits="userSpaceOnUse"
                      >
                        <stop stop-color="#0E4E95"></stop>
                        <stop offset="0.8" stop-color="#00B054"></stop>
                      </linearGradient>
                      <linearGradient
                        id="paint18_linear_205_2129"
                        x1="-10.7601"
                        y1="25.76"
                        x2="56.96"
                        y2="25.76"
                        gradientUnits="userSpaceOnUse"
                      >
                        <stop stop-color="#0E4E95"></stop>
                        <stop offset="0.8" stop-color="#00B054"></stop>
                      </linearGradient>
                      <linearGradient
                        id="paint19_linear_205_2129"
                        x1="-9.49975"
                        y1="25.76"
                        x2="54.66"
                        y2="25.76"
                        gradientUnits="userSpaceOnUse"
                      >
                        <stop stop-color="#0E4E95"></stop>
                        <stop offset="0.8" stop-color="#00B054"></stop>
                      </linearGradient>
                      <linearGradient
                        id="paint20_linear_205_2129"
                        x1="-10.7601"
                        y1="22.09"
                        x2="56.96"
                        y2="22.09"
                        gradientUnits="userSpaceOnUse"
                      >
                        <stop stop-color="#0E4E95"></stop>
                        <stop offset="0.8" stop-color="#00B054"></stop>
                      </linearGradient>
                      <linearGradient
                        id="paint21_linear_205_2129"
                        x1="-9.49975"
                        y1="22.09"
                        x2="54.66"
                        y2="22.09"
                        gradientUnits="userSpaceOnUse"
                      >
                        <stop stop-color="#0E4E95"></stop>
                        <stop offset="0.8" stop-color="#00B054"></stop>
                      </linearGradient>
                      <linearGradient
                        id="paint22_linear_205_2129"
                        x1="-35.3499"
                        y1="23.62"
                        x2="101.94"
                        y2="23.62"
                        gradientUnits="userSpaceOnUse"
                      >
                        <stop stop-color="#0E4E95"></stop>
                        <stop offset="0.8" stop-color="#00B054"></stop>
                      </linearGradient>
                      <linearGradient
                        id="paint23_linear_205_2129"
                        x1="-9.49992"
                        y1="23.62"
                        x2="54.6604"
                        y2="23.62"
                        gradientUnits="userSpaceOnUse"
                      >
                        <stop stop-color="#0E4E95"></stop>
                        <stop offset="0.8" stop-color="#00B054"></stop>
                      </linearGradient>
                      <linearGradient
                        id="paint24_linear_205_2129"
                        x1="-40.2202"
                        y1="23.62"
                        x2="97.0702"
                        y2="23.62"
                        gradientUnits="userSpaceOnUse"
                      >
                        <stop stop-color="#0E4E95"></stop>
                        <stop offset="0.8" stop-color="#00B054"></stop>
                      </linearGradient>
                      <linearGradient
                        id="paint25_linear_205_2129"
                        x1="-9.50017"
                        y1="23.62"
                        x2="54.6602"
                        y2="23.62"
                        gradientUnits="userSpaceOnUse"
                      >
                        <stop stop-color="#0E4E95"></stop>
                        <stop offset="0.8" stop-color="#00B054"></stop>
                      </linearGradient>
                      <linearGradient
                        id="paint26_linear_205_2129"
                        x1="-10.5401"
                        y1="29.42"
                        x2="56.42"
                        y2="29.42"
                        gradientUnits="userSpaceOnUse"
                      >
                        <stop stop-color="#0E4E95"></stop>
                        <stop offset="0.8" stop-color="#00B054"></stop>
                      </linearGradient>
                      <linearGradient
                        id="paint27_linear_205_2129"
                        x1="-9.50008"
                        y1="29.42"
                        x2="54.6599"
                        y2="29.42"
                        gradientUnits="userSpaceOnUse"
                      >
                        <stop stop-color="#0E4E95"></stop>
                        <stop offset="0.8" stop-color="#00B054"></stop>
                      </linearGradient>
                    </defs>
                  </svg>